<?xml version="1.0" standalone="no"?>
<!DOCTYPE svg PUBLIC "-//W3C//DTD SVG 20010904//EN"
 "http://www.w3.org/TR/2001/REC-SVG-20010904/DTD/svg10.dtd">
<svg version="1.0" xmlns="http://www.w3.org/2000/svg"
 width="2048.000000pt" height="2048.000000pt" viewBox="0 0 2048.000000 2048.000000"
 preserveAspectRatio="xMidYMid meet">

<g transform="translate(0.000000,2048.000000) scale(0.100000,-0.100000)"
fill="#000000" stroke="none">
<path d="M9920 17234 c-463 -29 -807 -77 -1185 -164 -378 -88 -890 -267 -1235
-432 -58 -28 -136 -66 -175 -84 -75 -35 -200 -103 -330 -178 -44 -25 -86 -46
-93 -46 -16 0 -10 65 13 160 12 50 28 169 39 295 2 27 0 58 -5 68 -9 16 -11
16 -26 2 -8 -9 -43 -34 -77 -57 -70 -47 -269 -244 -338 -334 -124 -162 -319
-504 -358 -629 -22 -70 -52 -119 -93 -155 -321 -277 -547 -499 -783 -765 -248
-281 -346 -409 -585 -765 -246 -369 -511 -886 -689 -1350 -93 -242 -122 -329
-230 -690 -29 -100 -106 -422 -129 -545 -103 -544 -141 -1180 -105 -1774 53
-891 302 -1807 701 -2581 159 -309 235 -437 420 -713 264 -393 469 -642 813
-985 463 -464 829 -748 1440 -1117 100 -61 601 -315 708 -360 370 -154 695
-261 1087 -359 324 -81 711 -143 1107 -176 259 -22 891 -13 1022 15 12 2 48 7
81 10 362 36 812 123 1120 216 287 86 698 236 915 334 220 98 594 295 744 391
111 71 425 281 467 312 245 181 474 372 698 581 252 236 635 663 771 861 13
19 27 37 30 40 14 10 225 324 300 445 24 39 57 93 75 120 55 87 234 429 300
572 70 154 169 391 208 498 13 39 43 120 66 181 39 107 113 358 145 494 85
359 102 445 140 710 67 461 81 998 42 1550 -20 268 -87 711 -146 955 -5 22
-19 81 -30 130 -30 124 -70 264 -147 505 -60 190 -86 260 -188 520 -182 460
-478 997 -798 1445 -333 468 -736 904 -1175 1269 -45 38 -76 72 -81 91 -29 96
-170 385 -260 533 -140 229 -371 476 -518 550 -22 12 -43 27 -46 34 -3 7 -6 3
-6 -9 -1 -12 -6 -23 -12 -25 -7 -2 -2 -58 16 -168 34 -218 47 -321 41 -327 -3
-3 -69 30 -148 74 -128 71 -569 293 -582 293 -2 0 -67 26 -143 59 -133 56
-608 218 -763 259 -386 104 -713 163 -1095 198 -158 14 -798 27 -935 18z m750
-469 c298 -26 410 -40 605 -76 131 -25 405 -87 565 -130 63 -16 131 -34 150
-39 64 -16 331 -110 474 -167 289 -114 616 -277 885 -441 231 -140 214 -125
206 -190 -9 -73 -49 -228 -85 -329 -36 -102 -195 -413 -210 -413 -4 0 -35 25
-71 56 -363 317 -910 602 -1514 787 -28 9 -99 27 -158 41 -425 101 -862 112
-1180 32 l-97 -25 -67 19 c-142 39 -288 54 -513 55 -269 0 -454 -23 -724 -91
-432 -108 -851 -288 -1250 -537 -71 -44 -213 -143 -226 -157 -4 -4 -176 -141
-217 -172 -24 -19 -136 177 -208 362 -44 116 -102 312 -111 378 l-6 49 78 50
c44 27 102 62 129 78 28 15 79 47 115 70 89 57 310 171 482 249 79 35 172 77
209 94 88 40 377 145 519 188 781 235 1505 319 2220 259z m3185 -597 c72 -279
54 -602 -52 -943 -51 -163 -191 -427 -315 -591 -116 -155 -316 -353 -340 -338
-6 4 -8 3 -5 -3 4 -5 -10 -23 -29 -39 -73 -59 -270 -193 -336 -229 l-68 -36 0
48 c0 26 11 79 25 117 19 54 35 79 72 113 26 24 53 41 61 38 7 -2 11 -1 8 4
-6 9 22 26 37 23 4 -1 6 2 5 7 -4 13 101 93 113 86 5 -4 8 -1 7 7 -2 7 3 12
10 10 6 -1 11 4 10 10 -2 7 3 12 10 10 8 -1 11 2 8 7 -4 5 6 18 21 29 16 11
68 61 117 111 49 49 94 87 99 84 6 -3 7 -1 3 6 -4 6 11 33 37 64 24 28 59 75
77 104 18 29 37 50 43 46 6 -3 7 -1 3 5 -3 6 7 34 25 61 82 134 191 409 233
591 36 151 46 203 47 233 l2 32 6 -35 7 -35 5 42 c2 23 1 39 -3 37 -5 -3 -8 7
-8 23 0 21 3 24 10 13 6 -9 8 13 5 63 -2 43 -1 75 3 73 5 -3 7 10 5 27 -8 93
-8 167 0 167 6 0 5 5 0 13 -5 6 -10 39 -11 72 l-1 60 15 -45 c8 -25 25 -89 39
-142z m-7173 51 c-10 -273 39 -592 130 -854 34 -97 160 -377 178 -395 12 -12
71 -102 73 -112 1 -6 11 -20 22 -32 11 -12 34 -39 50 -60 52 -68 149 -171 224
-239 24 -21 39 -42 35 -49 -5 -7 -3 -8 5 -4 15 10 53 -23 44 -37 -3 -6 -1 -7
6 -3 7 4 31 -9 59 -31 26 -21 64 -51 85 -66 20 -16 35 -32 32 -38 -3 -5 0 -6
7 -4 25 10 95 -62 113 -115 9 -27 13 -55 9 -61 -4 -7 -3 -9 3 -6 10 6 23 -43
23 -90 l0 -22 -54 24 c-74 33 -174 95 -286 178 -128 96 -398 367 -482 487
-103 145 -245 432 -292 590 -43 142 -77 382 -77 546 0 141 11 224 52 387 16
65 29 120 29 123 0 2 4 4 8 4 4 0 6 -54 4 -121z m3198 -494 c158 -17 168 -19
282 -47 l86 -21 109 26 c293 71 610 75 953 11 165 -31 180 -34 178 -43 -2 -18
3 -24 11 -12 7 11 18 11 62 1 83 -20 332 -104 454 -153 191 -78 247 -107 241
-122 -3 -9 1 -15 10 -15 8 0 12 5 9 10 -3 6 -3 10 1 10 10 0 298 -150 304
-158 3 -4 18 -13 33 -20 15 -7 26 -16 22 -21 -3 -5 0 -13 6 -17 8 -4 9 -3 5 4
-11 18 2 14 39 -11 19 -13 32 -27 27 -32 -4 -5 -1 -5 6 -1 16 10 39 -4 22 -14
-8 -5 -7 -9 5 -13 9 -4 13 -3 10 3 -10 16 3 12 45 -16 22 -15 37 -30 34 -35
-3 -5 1 -7 8 -4 22 8 262 -181 251 -198 -3 -6 -2 -7 3 -4 6 3 16 2 24 -3 12
-7 7 -17 -25 -51 -22 -24 -46 -49 -52 -57 -7 -7 -17 -11 -23 -7 -6 4 -7 -1 -3
-12 6 -16 5 -17 -12 -3 -11 8 -34 29 -52 46 -19 17 -69 57 -112 90 -44 32 -77
62 -75 65 2 4 -4 6 -14 5 -9 0 -16 5 -14 12 1 8 -2 11 -8 7 -6 -4 -29 7 -51
23 -27 20 -36 32 -27 36 7 3 4 5 -8 2 -25 -4 -57 11 -49 25 4 5 -2 6 -11 2
-13 -5 -15 -3 -9 7 5 9 4 11 -3 6 -17 -11 -75 26 -59 37 8 6 6 7 -6 3 -20 -6
-301 137 -290 148 4 4 0 4 -8 1 -9 -3 -34 3 -55 14 -70 35 -257 108 -384 149
-182 59 -378 104 -572 132 -77 11 -463 16 -528 6 -19 -3 -71 -10 -115 -16 -44
-7 -131 -24 -194 -40 -77 -19 -121 -26 -136 -20 -40 15 -269 60 -360 70 -49 5
-164 10 -255 10 -259 0 -467 -32 -768 -116 -67 -19 -128 -32 -135 -28 -6 4 -8
3 -4 -2 10 -10 -161 -76 -175 -67 -6 3 -8 1 -5 -4 4 -6 -5 -14 -20 -18 -15 -3
-61 -22 -102 -41 -41 -19 -81 -32 -89 -29 -7 2 -11 1 -8 -4 8 -12 -245 -140
-264 -133 -8 2 -12 1 -7 -3 9 -11 -74 -67 -90 -60 -7 2 -12 -1 -10 -8 1 -7 -6
-11 -15 -11 -10 1 -15 -2 -13 -7 3 -4 -5 -13 -17 -20 -13 -7 -63 -39 -113 -71
-49 -33 -94 -60 -100 -61 -5 -1 -17 -11 -27 -22 -10 -11 -17 -15 -18 -8 0 7
-7 10 -16 6 -10 -4 -12 -8 -5 -12 6 -4 -17 -30 -55 -60 l-67 -53 -48 48 c-26
26 -46 51 -43 56 3 5 0 7 -7 6 -18 -4 -23 30 -8 48 7 8 18 13 26 10 8 -3 12
-2 8 3 -7 12 50 53 60 43 5 -4 5 -2 1 5 -3 7 7 21 26 35 18 12 41 30 51 38 10
8 27 15 39 15 12 0 22 6 24 13 1 7 0 8 -3 2 -2 -5 -9 -10 -15 -10 -6 0 -5 6 2
15 7 9 19 14 27 11 8 -3 12 -2 9 3 -8 13 21 34 35 25 7 -4 9 -3 5 4 -8 13 60
56 74 47 6 -4 10 -3 9 2 -3 20 2 27 11 13 8 -13 10 -13 10 2 0 24 35 42 49 24
6 -7 7 -17 3 -21 -4 -4 8 0 26 11 23 13 28 20 18 22 -9 2 -16 11 -15 20 0 11
2 12 6 5 2 -7 12 -13 21 -13 12 0 13 3 5 11 -15 15 11 43 33 35 8 -3 13 -2 9
3 -4 8 169 107 267 152 20 10 53 25 72 34 20 10 43 15 51 11 9 -3 14 -2 11 3
-8 13 23 23 48 16 15 -5 17 -4 7 3 -11 8 -9 12 9 22 25 13 42 4 20 -11 -12 -9
-12 -10 3 -5 10 3 24 6 30 6 7 0 6 4 -3 10 -8 5 -11 12 -8 15 4 4 12 3 19 -1
19 -11 59 -11 66 0 3 5 1 6 -5 2 -7 -4 -12 -2 -12 4 0 7 -9 9 -22 5 -21 -5
-20 -4 2 9 29 16 316 115 370 127 19 4 94 21 166 37 341 78 580 97 854 67z
m-2030 -555 c0 -5 -5 -10 -11 -10 -5 0 -7 5 -4 10 3 6 8 10 11 10 2 0 4 -4 4
-10z m-1923 -428 c6 -387 61 -668 199 -1000 24 -59 44 -112 44 -118 0 -12 -42
-117 -85 -208 -132 -285 -267 -737 -330 -1101 -2 -11 -9 -47 -14 -80 -20 -115
-54 -439 -76 -725 -55 -729 -76 -887 -161 -1219 -41 -165 -63 -245 -135 -496
-186 -655 -206 -1079 -69 -1511 27 -88 142 -344 185 -412 157 -251 297 -407
499 -558 l39 -29 -6 65 c-11 125 -37 315 -47 350 -5 19 -10 55 -10 80 l0 45
36 -65 c49 -87 84 -138 170 -245 83 -104 281 -303 369 -371 101 -78 275 -189
380 -242 147 -74 435 -188 435 -172 0 10 -88 232 -100 253 -14 23 -1 21 40 -7
135 -91 442 -220 760 -319 167 -52 170 -51 125 49 -87 193 -236 556 -230 562
1 2 65 -28 141 -67 189 -94 400 -175 617 -237 l59 -16 -109 -60 c-188 -104
-313 -192 -432 -303 -52 -49 -111 -124 -111 -143 0 -14 92 -56 349 -159 291
-116 452 -170 685 -228 410 -101 819 -144 1251 -131 509 14 949 101 1472 290
162 58 454 186 492 215 l24 19 -35 48 c-46 63 -77 91 -217 202 -101 80 -198
140 -355 222 l-49 25 79 23 c216 63 459 160 630 251 60 32 110 57 112 56 5 -4
-82 -219 -149 -371 -59 -132 -111 -275 -104 -283 11 -11 317 85 516 162 132
51 318 141 384 187 25 17 45 29 45 28 0 -2 -22 -54 -49 -114 -69 -157 -69
-156 -34 -148 163 40 534 214 686 322 251 179 539 487 651 698 l26 49 -3 -65
c-2 -36 -11 -119 -20 -185 -9 -66 -17 -150 -19 -187 -4 -77 -9 -77 92 -2 158
116 294 275 430 504 96 160 154 300 214 512 50 178 74 462 55 678 -13 150 -78
481 -129 660 -6 19 -28 103 -51 185 -22 83 -49 182 -60 220 -81 297 -126 509
-144 670 -3 33 -8 67 -10 75 -2 8 -6 49 -9 90 -26 355 -57 745 -60 775 -3 17
-7 71 -11 120 -18 240 -103 705 -175 949 -78 266 -188 567 -273 743 l-35 73
45 107 c143 347 211 702 201 1061 -2 67 0 122 3 122 8 0 173 -173 290 -305
439 -497 827 -1118 1109 -1776 74 -172 186 -492 255 -729 20 -69 40 -136 45
-150 15 -45 85 -349 95 -415 4 -22 13 -71 20 -110 8 -38 23 -140 35 -225 12
-85 23 -166 25 -180 3 -14 10 -83 16 -155 6 -71 12 -132 14 -135 6 -10 20
-359 20 -505 0 -135 -12 -437 -20 -486 -2 -13 -6 -60 -9 -104 -6 -75 -59 -460
-71 -515 -3 -14 -12 -59 -20 -100 -8 -41 -17 -91 -21 -110 -11 -60 -104 -409
-139 -525 -46 -153 -163 -471 -226 -612 -122 -278 -337 -684 -455 -862 -27
-41 -76 -115 -109 -166 -245 -373 -578 -759 -970 -1126 -402 -376 -993 -776
-1525 -1031 -284 -137 -319 -152 -470 -209 -58 -21 -114 -43 -125 -48 -30 -14
-426 -136 -548 -170 -237 -66 -621 -136 -907 -165 -273 -29 -325 -31 -650 -30
-437 1 -759 34 -1195 124 -691 143 -1342 398 -1958 768 -89 53 -166 99 -172
101 -5 2 -12 7 -15 11 -3 3 -63 46 -135 94 -351 235 -612 453 -931 777 -216
220 -373 397 -514 579 -19 25 -44 55 -55 68 -63 74 -312 451 -406 614 -139
243 -292 554 -377 768 -119 301 -206 555 -228 665 -2 11 -10 43 -19 70 -30
102 -75 289 -90 373 -8 48 -17 96 -19 107 -74 374 -111 771 -111 1185 0 234 4
357 16 450 4 36 10 97 14 135 11 124 26 247 45 365 11 63 22 138 25 165 4 28
8 57 10 65 2 8 7 31 10 50 6 34 15 77 56 255 46 200 188 666 235 772 8 17 14
34 14 37 0 13 102 265 151 373 10 24 19 45 19 48 0 7 209 427 219 440 5 6 25
42 46 80 21 39 64 112 96 164 33 51 59 95 59 97 0 10 250 377 318 469 148 196
349 432 506 593 50 50 91 92 91 92 0 0 1 -80 2 -178z m480 -1551 c-3 -9 -30
-72 -60 -141 -102 -236 -245 -695 -291 -937 -2 -10 -22 -101 -44 -203 -40
-180 -56 -262 -67 -345 -3 -22 -10 -62 -15 -90 -11 -58 -60 -363 -67 -415 -7
-62 -24 -140 -30 -140 -3 0 -3 19 1 43 3 23 9 98 12 167 4 69 8 132 10 140 1
8 3 35 5 60 l2 45 7 -40 7 -40 2 35 c1 24 4 31 10 21 6 -9 8 -2 6 20 -2 19 -5
36 -6 39 -1 3 0 10 1 15 8 34 8 155 0 155 -6 0 -10 17 -10 38 0 27 3 33 10 22
8 -13 10 -12 10 3 0 9 -4 17 -8 17 -11 0 9 234 34 402 8 54 14 104 14 110 0 9
4 8 11 -2 9 -12 10 -11 6 8 -3 12 -2 22 2 22 4 0 12 23 17 50 6 28 7 50 3 50
-4 0 -10 -8 -12 -17 -3 -10 -5 -3 -6 16 -1 30 1 32 17 20 15 -13 16 -12 4 3
-9 11 -11 29 -6 55 13 74 85 359 115 456 30 95 45 124 34 70 -3 -16 -2 -21 1
-13 27 62 32 80 23 80 -5 0 -9 -7 -9 -17 0 -9 -3 -14 -6 -11 -3 3 9 46 26 96
26 72 35 90 49 85 13 -4 14 -3 1 5 -12 10 -12 18 4 64 11 29 35 86 53 126 l35
72 55 -91 c31 -52 52 -98 50 -108z m7844 58 c93 -227 216 -616 205 -645 -3 -7
0 -14 5 -16 5 -2 11 -24 12 -50 1 -25 5 -44 10 -41 4 2 7 -5 7 -17 0 -14 -4
-19 -12 -15 -7 4 -6 0 3 -7 15 -12 21 -31 34 -98 3 -14 7 -36 10 -50 3 -14 8
-36 10 -50 8 -42 43 -321 50 -395 3 -38 10 -110 15 -160 6 -49 17 -191 25
-315 8 -124 22 -290 30 -370 8 -80 14 -161 14 -180 -1 -33 -2 -32 -9 10 -5 25
-20 122 -35 215 -14 94 -28 181 -31 195 -9 52 -33 206 -38 245 -22 171 -54
332 -126 630 -28 116 -52 219 -53 230 -1 11 -5 22 -8 25 -5 4 -27 81 -44 153
-2 9 -6 21 -9 25 -3 5 -7 19 -10 33 -9 49 -140 428 -183 527 -39 92 -42 105
-28 118 8 8 19 13 24 10 5 -3 7 4 3 16 -4 16 -2 19 8 13 8 -5 11 -4 6 3 -7 12
31 82 46 82 5 0 6 6 2 13 -5 9 -4 9 5 1 6 -6 34 -67 62 -135z m-5683 -954 c12
-50 28 -110 36 -134 9 -24 13 -48 9 -54 -4 -6 -1 -7 7 -2 10 6 12 4 7 -8 -3
-9 -3 -17 1 -19 4 -2 20 -37 36 -78 55 -144 192 -448 207 -460 3 -3 14 -21 24
-40 21 -41 154 -253 164 -260 11 -9 121 -158 121 -165 0 -3 -12 2 -27 12 -79
53 -258 121 -441 167 -213 54 -584 89 -702 66 -57 -11 -170 -51 -170 -60 0 -3
61 -16 135 -28 331 -56 638 -155 1035 -335 183 -82 280 -113 310 -97 25 13 42
53 33 76 -3 9 43 -31 103 -89 60 -58 141 -129 179 -158 76 -57 228 -139 257
-139 22 0 21 5 -34 180 -22 69 -44 141 -49 160 l-8 35 41 -45 c56 -63 178
-187 229 -236 120 -111 344 -273 519 -375 164 -96 414 -207 425 -189 3 4 0 34
-6 65 -6 32 -8 66 -6 76 3 11 2 17 -2 15 -7 -5 -53 263 -72 425 l-12 97 28 48
c117 204 267 565 325 782 7 28 15 40 23 36 9 -5 9 -4 1 5 -8 8 -2 47 21 139
17 70 40 174 50 229 12 66 22 100 29 96 6 -4 5 0 -1 9 -7 8 -11 17 -9 19 7 7
35 211 37 272 1 31 5 57 8 57 3 0 18 -22 33 -48 106 -182 279 -416 460 -621
26 -30 44 -59 41 -64 -3 -6 -1 -7 4 -4 6 4 18 -2 27 -12 14 -15 14 -20 4 -25
-9 -3 -8 -5 3 -3 15 2 313 -272 305 -281 -2 -2 -49 -6 -103 -8 -250 -12 -583
-90 -768 -181 -96 -47 -132 -69 -195 -122 -30 -25 -59 -44 -65 -43 -5 2 -7 1
-3 -3 3 -4 -4 -30 -17 -58 -35 -75 -22 -121 35 -119 38 1 178 46 239 77 67 33
322 144 436 189 151 59 415 132 546 151 44 7 47 5 131 -58 46 -36 127 -93 179
-126 52 -34 99 -65 105 -70 7 -6 15 -7 18 -4 3 4 6 1 6 -5 0 -6 6 -12 13 -14
7 -2 61 -30 120 -62 l107 -59 1 -41 c1 -23 3 -57 5 -76 3 -19 2 -45 -1 -57 -4
-19 -10 -21 -62 -16 -32 3 -124 27 -205 54 -294 97 -424 122 -653 122 -136 1
-179 -3 -287 -26 -332 -69 -598 -247 -712 -474 -23 -47 -56 -192 -56 -249 0
-14 6 -24 14 -24 13 0 78 66 128 130 l27 35 -11 -40 c-14 -55 -2 -225 23 -315
25 -93 52 -151 100 -220 77 -112 146 -172 251 -219 84 -38 151 -51 261 -51
247 0 452 159 556 429 45 118 63 219 62 365 0 141 -10 205 -47 303 -13 34 -22
63 -21 63 18 0 190 -66 226 -86 95 -55 89 -42 90 -210 1 -117 -3 -166 -18
-230 -25 -102 -57 -195 -88 -257 -13 -27 -28 -59 -33 -73 -9 -23 -8 -24 8 -12
22 16 115 115 171 183 46 55 145 250 191 374 16 44 39 100 51 123 19 38 23 41
30 23 12 -30 10 -134 -2 -157 -8 -15 -8 -18 0 -14 6 4 9 1 7 -6 -3 -7 -7 -65
-10 -128 -26 -486 -121 -1279 -171 -1415 -11 -29 -52 -77 -138 -162 -194 -192
-295 -270 -518 -399 -256 -148 -466 -235 -787 -330 -207 -60 -289 -79 -557
-124 -529 -90 -787 -94 -1225 -20 -69 11 -141 23 -160 26 -111 16 -210 38
-441 98 -412 109 -801 288 -1089 500 -124 92 -133 100 -278 241 -128 124 -144
146 -156 205 -58 303 -123 802 -142 1085 -3 55 -8 107 -9 115 -2 9 -6 101 -10
205 -4 105 -9 205 -10 224 -1 18 0 42 3 53 4 16 7 15 27 -14 12 -18 34 -67 48
-108 53 -156 107 -263 186 -370 36 -49 183 -211 187 -207 2 2 -14 47 -36 100
-79 189 -116 415 -96 580 l7 57 92 45 c51 24 117 53 147 64 30 10 63 22 73 26
16 7 16 3 -4 -46 -50 -124 -60 -173 -66 -305 -12 -269 65 -491 226 -652 200
-200 557 -216 780 -34 94 76 183 218 221 352 26 91 38 282 21 331 l-11 34 39
-42 c22 -24 58 -64 80 -90 l41 -48 0 50 c0 112 -51 265 -117 352 -25 33 -57
65 -127 127 -77 67 -227 147 -356 190 -170 55 -264 70 -440 70 -213 0 -355
-27 -635 -118 -155 -51 -239 -69 -268 -60 -18 6 -19 14 -15 123 l4 116 110
110 c278 281 550 625 768 972 27 43 59 94 71 113 49 76 140 253 166 319 14 35
24 18 47 -84z m-2611 -72 c-3 -10 -5 -4 -5 12 0 17 2 24 5 18 2 -7 2 -21 0
-30z m-80 -770 c-2 -16 -4 -3 -4 27 0 30 2 43 4 28 2 -16 2 -40 0 -55z m8800
-675 c-3 -8 -6 -5 -6 6 -1 11 2 17 5 13 3 -3 4 -12 1 -19z m-6307 -331 c77
-41 99 -116 58 -197 -30 -57 -65 -82 -127 -88 -62 -6 -101 9 -141 54 -54 62
-52 130 7 195 55 61 130 75 203 36z m3338 -84 c86 -64 86 -202 1 -266 -71 -52
-190 -22 -228 57 -41 83 -20 158 56 207 41 26 55 30 96 26 27 -2 61 -13 75
-24z m-2874 -349 c3 -8 2 -12 -4 -9 -6 3 -10 10 -10 16 0 14 7 11 14 -7z
m2890 -162 c3 -5 -1 -9 -9 -9 -8 0 -12 4 -9 9 3 4 7 8 9 8 2 0 6 -4 9 -8z
m614 -77 c-3 -3 -9 2 -12 12 -6 14 -5 15 5 6 7 -7 10 -15 7 -18z m-3893 -214
c3 -5 0 -13 -6 -17 -7 -4 -9 -3 -5 4 3 5 0 13 -6 15 -9 4 -10 6 -1 6 6 1 14
-3 18 -8z m-21 -33 c10 -9 24 -14 31 -12 7 3 16 -1 21 -8 4 -7 4 -10 -1 -6 -4
4 -17 3 -28 -3 -15 -9 -18 -8 -12 2 6 9 3 11 -9 6 -10 -4 -15 -3 -11 3 7 12
-35 31 -49 22 -5 -3 -6 0 -3 5 10 15 39 11 61 -9z m3691 12 c-3 -5 -12 -10
-18 -10 -7 0 -6 4 3 10 19 12 23 12 15 0z m-3328 -26 c0 -6 -18 -9 -41 -8 -53
4 -54 4 -34 12 27 11 75 8 75 -4z m-97 -3 c0 -5 -9 -7 -20 -4 -11 3 -20 7 -20
9 0 2 9 4 20 4 11 0 20 -4 20 -9z m3280 -1 c0 -5 -2 -10 -4 -10 -3 0 -8 5 -11
10 -3 6 -1 10 4 10 6 0 11 -4 11 -10z m-2075 -2155 c161 -26 574 -26 707 1 27
5 154 17 165 16 5 -1 15 -66 24 -145 12 -117 19 -150 38 -175 25 -35 117 -110
169 -136 42 -22 40 -28 -46 -125 -157 -179 -434 -398 -653 -518 l-55 -31 -105
60 c-206 119 -418 290 -586 472 -100 107 -114 126 -94 126 17 0 189 120 210
145 19 25 22 48 36 246 l6 85 77 -8 c42 -4 91 -10 107 -13z"/>
<path d="M13710 15439 c0 -5 5 -7 10 -4 6 3 10 8 10 11 0 2 -4 4 -10 4 -5 0
-10 -5 -10 -11z"/>
<path d="M12987 14392 c-15 -15 -27 -32 -27 -36 0 -5 14 6 30 24 28 30 35 40
27 40 -2 0 -15 -13 -30 -28z"/>
<path d="M11708 15578 c5 -5 16 -8 23 -6 8 3 3 7 -10 11 -17 4 -21 3 -13 -5z"/>
<path d="M12125 15421 c-2 -5 8 -11 23 -14 35 -7 38 -3 7 11 -13 6 -27 7 -30
3z"/>
<path d="M12166 15238 c3 -4 9 -8 15 -8 5 0 9 4 9 8 0 5 -7 9 -15 9 -8 0 -12
-4 -9 -9z"/>
<path d="M7905 15200 c-3 -5 -1 -10 4 -10 6 0 11 5 11 10 0 6 -2 10 -4 10 -3
0 -8 -4 -11 -10z"/>
<path d="M7930 15180 c0 -5 5 -10 11 -10 5 0 7 5 4 10 -3 6 -8 10 -11 10 -2 0
-4 -4 -4 -10z"/>
<path d="M12785 15060 c3 -5 8 -10 11 -10 2 0 4 5 4 10 0 6 -5 10 -11 10 -5 0
-7 -4 -4 -10z"/>
<path d="M12675 14960 c3 -5 8 -10 11 -10 2 0 4 5 4 10 0 6 -5 10 -11 10 -5 0
-7 -4 -4 -10z"/>
<path d="M6206 13097 c3 -10 9 -15 12 -12 3 3 0 11 -7 18 -10 9 -11 8 -5 -6z"/>
<path d="M6161 12999 c0 -13 3 -18 6 -11 3 9 9 10 17 3 9 -8 13 -6 13 4 0 8
-3 13 -5 10 -3 -3 -11 0 -19 6 -10 9 -13 6 -12 -12z"/>
<path d="M6170 12961 c0 -5 -3 -16 -6 -24 -3 -8 2 -17 10 -20 12 -5 16 1 16
23 0 17 -4 30 -10 30 -5 0 -10 -4 -10 -9z"/>
<path d="M6264 12920 c0 -13 4 -16 10 -10 7 7 7 13 0 20 -6 6 -10 3 -10 -10z"/>
<path d="M6006 12285 c4 -9 11 -14 16 -13 15 5 11 23 -6 26 -11 2 -14 -2 -10
-13z"/>
<path d="M5987 12261 c-4 -17 -3 -21 5 -13 5 5 8 16 6 23 -3 8 -7 3 -11 -10z"/>
<path d="M6008 12226 c-2 -18 -1 -46 3 -60 5 -18 4 -24 -4 -19 -7 4 -8 0 -4
-11 4 -10 7 -27 7 -38 0 -22 22 -20 28 3 3 11 1 11 -8 -1 -9 -12 -10 -7 -4 20
3 19 12 38 18 42 8 6 7 8 -1 8 -7 0 -13 8 -13 18 0 10 6 24 13 31 10 11 10 13
0 7 -9 -5 -13 0 -13 13 0 34 -18 24 -22 -13z"/>
<path d="M5986 12213 c-3 -10 -10 -39 -14 -64 -7 -36 -6 -46 5 -46 8 0 13 13
14 36 0 20 2 48 4 64 4 31 -1 36 -9 10z"/>
<path d="M5891 11604 c0 -11 3 -14 6 -6 3 7 2 16 -1 19 -3 4 -6 -2 -5 -13z"/>
<path d="M14175 13260 c3 -5 8 -10 11 -10 2 0 4 5 4 10 0 6 -5 10 -11 10 -5 0
-7 -4 -4 -10z"/>
<path d="M14258 13163 c-2 -10 0 -38 6 -63 9 -44 10 -44 16 -15 3 18 1 35 -6
42 -7 7 -10 22 -7 33 3 11 3 20 0 20 -2 0 -7 -8 -9 -17z"/>
<path d="M14185 13150 c-3 -6 1 -7 9 -4 18 7 21 14 7 14 -6 0 -13 -4 -16 -10z"/>
<path d="M14159 13101 c11 -7 11 -9 0 -13 -10 -3 -10 -6 -1 -12 7 -4 12 -2 12
5 0 8 5 8 18 -2 14 -11 13 -10 -2 9 -11 12 -24 22 -30 22 -6 0 -5 -4 3 -9z"/>
<path d="M14166 13045 c4 -8 8 -15 10 -15 2 0 4 7 4 15 0 8 -4 15 -10 15 -5 0
-7 -7 -4 -15z"/>
<path d="M14180 13010 c0 -5 5 -10 11 -10 5 0 7 5 4 10 -3 6 -8 10 -11 10 -2
0 -4 -4 -4 -10z"/>
<path d="M14421 12624 c0 -11 3 -14 6 -6 3 7 2 16 -1 19 -3 4 -6 -2 -5 -13z"/>
<path d="M14431 12584 c0 -11 3 -14 6 -6 3 7 2 16 -1 19 -3 4 -6 -2 -5 -13z"/>
<path d="M14443 12558 c-11 -18 -11 -118 0 -118 5 0 7 -7 3 -15 -3 -9 0 -15
10 -15 12 0 15 6 10 23 -14 47 -15 81 -3 96 10 12 9 13 -2 6 -11 -6 -13 -3 -9
13 7 25 3 28 -9 10z"/>
<path d="M14441 12397 c2 -1 11 -8 20 -15 13 -9 16 -9 16 3 0 8 -9 15 -20 15
-11 0 -18 -1 -16 -3z"/>
<path d="M14533 11810 c0 -27 3 -48 7 -45 5 3 12 -5 15 -16 7 -20 8 -21 17 -5
5 10 7 20 4 23 -3 4 -6 0 -6 -8 0 -8 -6 -4 -16 9 -16 23 -12 43 9 41 9 0 9 -2
0 -6 -18 -7 -16 -20 2 -20 13 0 15 13 6 70 0 4 -9 7 -18 7 -15 0 -18 -10 -20
-50z m24 18 c-3 -8 -6 -5 -6 6 -1 11 2 17 5 13 3 -3 4 -12 1 -19z"/>
<path d="M14570 11679 c0 -5 5 -7 10 -4 6 3 10 8 10 11 0 2 -4 4 -10 4 -5 0
-10 -5 -10 -11z"/>
<path d="M7735 10949 c-4 -6 -5 -12 -2 -15 2 -3 7 2 10 11 7 17 1 20 -8 4z"/>
<path d="M10093 8510 c-133 -20 -243 -70 -243 -111 0 -25 37 -33 108 -25 200
24 273 26 427 15 209 -15 243 -15 256 -2 17 17 -6 50 -49 72 -93 47 -351 74
-499 51z"/>
</g>
</svg>
