<?xml version="1.0" standalone="no"?>
<!DOCTYPE svg PUBLIC "-//W3C//DTD SVG 20010904//EN"
 "http://www.w3.org/TR/2001/REC-SVG-20010904/DTD/svg10.dtd">
<svg version="1.0" xmlns="http://www.w3.org/2000/svg"
 width="2048.000000pt" height="2048.000000pt" viewBox="0 0 2048.000000 2048.000000"
 preserveAspectRatio="xMidYMid meet">

<g transform="translate(0.000000,2048.000000) scale(0.100000,-0.100000)"
fill="#000000" stroke="none">
<path d="M0 10240 l0 -10240 10240 0 10240 0 0 10240 0 10240 -10240 0 -10240
0 0 -10240z m10711 7485 c64 -3 123 -7 130 -9 8 -3 61 -10 119 -16 392 -42
835 -133 1205 -247 443 -136 757 -266 1255 -518 37 -18 42 -26 64 -100 34
-110 76 -305 76 -350 0 -30 -3 -35 -13 -26 -8 6 -18 7 -22 3 -5 -4 -5 -2 -2 4
6 10 -259 167 -383 229 -125 61 -426 195 -540 240 -334 131 -645 232 -665 215
-6 -5 -21 -6 -34 -3 -15 4 -19 8 -11 13 8 5 7 9 -4 13 -9 4 -16 2 -16 -3 0 -6
-8 -10 -17 -10 -15 0 -15 2 -4 9 15 10 -1 16 -154 53 -487 119 -907 164 -1520
162 -498 -1 -929 -53 -1445 -175 -138 -32 -360 -101 -354 -110 3 -5 -2 -6 -10
-3 -9 3 -16 2 -16 -3 0 -5 -10 -9 -22 -8 -30 3 -49 -5 -42 -16 3 -5 -2 -6 -10
-3 -56 21 -877 -327 -1120 -474 -37 -23 -69 -42 -71 -42 -2 0 -36 -18 -75 -41
-40 -22 -74 -38 -77 -36 -8 9 50 269 85 386 14 46 23 57 69 87 53 34 295 154
311 154 4 0 17 7 28 16 19 15 19 16 -1 9 -11 -3 -16 -2 -11 2 4 4 18 8 29 8
14 0 21 5 19 15 -3 12 -1 12 9 3 9 -9 18 -9 39 2 15 8 49 23 76 33 27 11 105
43 174 72 198 81 325 124 670 224 208 60 311 84 645 151 107 21 415 65 550 79
28 3 124 8 215 12 91 3 167 9 170 11 5 5 464 -4 701 -12z m-2021 -155 c-19 -5
-38 -6 -42 -2 -4 4 12 8 35 9 l42 1 -35 -8z m-1890 -932 c0 -7 -9 -51 -20 -98
-51 -223 -49 -581 5 -860 54 -280 97 -406 215 -628 109 -207 165 -285 328
-455 61 -63 92 -102 88 -112 -3 -8 -1 -15 4 -15 11 0 4 -125 -8 -146 -12 -21
-82 29 -206 147 -111 106 -210 231 -295 371 l-53 86 21 57 c21 56 28 125 13
125 -4 0 -24 -25 -43 -55 -18 -30 -37 -55 -40 -55 -10 0 -116 329 -128 396
-17 90 -49 351 -57 452 -12 164 38 560 87 683 28 72 90 145 89 107z m6935 -18
c11 -17 19 -38 17 -46 -2 -10 1 -13 9 -8 8 4 10 3 5 -4 -4 -6 1 -28 9 -49 24
-56 82 -304 96 -411 15 -114 7 -414 -16 -557 -22 -146 -61 -294 -111 -423 -24
-63 -47 -118 -50 -124 -4 -6 -24 18 -46 52 -51 79 -69 70 -44 -22 32 -117 34
-106 -43 -222 -102 -151 -231 -297 -396 -445 l-59 -54 -13 32 c-8 17 -16 59
-20 93 l-6 60 60 57 c88 83 215 240 305 379 134 205 229 471 289 807 33 190
37 501 9 718 -11 93 -24 175 -27 183 -9 25 11 15 32 -16z m-7311 -164 c-104
-156 -223 -370 -285 -516 -17 -41 -39 -81 -48 -88 -9 -7 -10 -10 -2 -6 9 4 12
3 7 -4 -4 -6 -12 -9 -19 -6 -16 6 -119 -85 -111 -98 4 -6 3 -8 -3 -5 -33 21
-532 -496 -814 -843 -78 -96 -237 -316 -335 -464 -95 -143 -118 -180 -205
-331 -404 -697 -668 -1420 -804 -2200 -31 -174 -34 -195 -49 -332 -105 -930
-47 -1750 180 -2576 140 -506 326 -963 596 -1460 363 -669 928 -1369 1503
-1862 39 -33 72 -62 75 -65 47 -51 396 -313 615 -461 60 -41 113 -77 118 -80
5 -3 -8 -39 -29 -80 -20 -41 -52 -110 -70 -154 -18 -44 -35 -80 -39 -79 -25 2
-489 332 -645 458 -246 198 -333 276 -595 532 -180 176 -407 429 -570 634 -99
124 -273 359 -318 428 -16 25 -32 40 -39 36 -7 -4 -8 -3 -4 4 10 16 -12 54
-26 46 -7 -4 -8 -3 -4 4 3 6 -13 42 -37 79 -58 90 -190 310 -211 351 -10 19
-21 30 -28 26 -6 -4 -8 -3 -4 4 3 6 -47 116 -112 244 -397 782 -627 1564 -719
2448 -23 229 -26 297 -27 660 -1 440 12 649 60 1005 106 785 417 1738 771
2359 20 33 49 86 65 116 163 297 442 708 677 995 385 471 843 905 1321 1255
41 30 82 61 90 67 31 25 175 122 177 119 2 -2 -44 -74 -103 -160z m7586 125
c0 -4 15 -15 33 -25 120 -70 493 -363 707 -556 435 -392 795 -796 1096 -1230
527 -761 875 -1534 1083 -2405 139 -583 201 -1174 188 -1795 -4 -157 -9 -296
-11 -310 -3 -14 -10 -86 -16 -160 -42 -522 -157 -1063 -349 -1630 -98 -293
-153 -429 -279 -696 -360 -764 -882 -1497 -1474 -2069 -362 -350 -646 -583
-1037 -849 -153 -104 -171 -114 -171 -97 0 6 -31 78 -69 161 -38 82 -66 150
-61 150 11 0 266 173 385 260 355 262 678 561 1055 975 37 41 63 73 236 286
396 489 772 1139 997 1724 276 717 409 1357 447 2145 19 384 -17 1004 -76
1335 -140 783 -311 1308 -629 1940 -160 317 -219 416 -243 409 -14 -5 -14 -4
-3 4 16 12 -18 75 -149 272 -180 272 -320 456 -332 438 -7 -9 -8 -8 -4 5 3 10
-3 27 -13 40 -11 12 -45 54 -77 92 -135 162 -247 284 -257 278 -6 -3 -7 -1 -3
6 10 15 -338 366 -353 356 -6 -3 -10 -1 -9 6 3 13 -192 190 -202 184 -3 -2
-19 26 -35 63 -80 187 -233 461 -349 627 -58 82 -60 86 -42 79 9 -3 16 -9 16
-13z m-4093 -805 c106 -19 153 -31 239 -62 l71 -26 121 31 c230 58 445 81 697
76 291 -6 489 -42 765 -140 386 -137 710 -303 1018 -524 163 -116 342 -263
339 -279 -2 -13 -98 -130 -107 -131 -3 -1 -40 32 -81 72 -162 156 -223 203
-461 355 -256 163 -464 261 -768 362 -276 92 -529 131 -837 130 -98 0 -143 4
-145 12 -3 8 -9 8 -24 -1 -15 -10 -15 -11 -1 -7 9 3 17 1 17 -4 0 -6 -16 -10
-35 -10 -36 0 -166 -20 -294 -46 -54 -11 -76 -12 -81 -4 -5 8 -23 9 -54 5 -34
-6 -46 -4 -46 6 0 7 3 10 6 6 4 -3 21 0 39 7 24 10 36 11 44 3 8 -8 11 -8 11
1 0 12 -15 17 -35 12 -5 -2 -37 -4 -70 -5 -39 -1 -59 -6 -58 -13 2 -7 -2 -12
-7 -12 -7 0 -7 -7 1 -21 10 -19 18 -21 67 -17 31 3 58 10 60 16 5 15 32 16 32
2 0 -5 -3 -9 -7 -8 -5 1 -30 -8 -57 -20 -27 -12 -52 -22 -57 -22 -5 0 -42 11
-82 24 -97 32 -214 53 -360 66 -277 24 -575 -21 -947 -142 -405 -132 -655
-258 -1089 -550 -88 -59 -166 -106 -173 -105 -7 2 -10 2 -5 0 4 -3 4 -9 1 -15
-4 -5 -16 -1 -29 12 -20 18 -23 19 -35 5 -7 -8 -9 -19 -5 -23 4 -4 10 -1 12 6
3 6 9 12 14 12 6 0 7 -5 3 -12 -4 -7 -3 -8 4 -4 7 4 12 3 12 -2 0 -11 -39 -47
-45 -41 -12 13 -33 77 -27 84 4 5 1 5 -6 1 -7 -5 -11 -14 -8 -22 3 -8 1 -14
-4 -14 -6 0 -10 -5 -10 -11 0 -6 6 -9 14 -6 8 3 18 -4 24 -19 10 -20 8 -25
-10 -35 -23 -13 -30 -7 -99 85 -27 37 -28 40 -13 58 21 22 38 24 30 3 -3 -8 0
-15 5 -15 6 0 9 9 6 20 -10 38 156 180 359 307 60 37 118 74 129 80 150 94
255 150 470 248 329 150 647 242 965 279 84 9 518 -3 597 -18z m4533 -21 c0
-5 -5 -3 -10 5 -5 8 -10 20 -10 25 0 6 5 3 10 -5 5 -8 10 -19 10 -25z m-1413
-1382 l-3 -97 -50 -30 c-62 -37 -159 -115 -247 -198 l-69 -65 7 71 c14 134 45
188 152 260 133 90 158 108 183 132 13 13 26 24 27 24 1 0 1 -44 0 -97z
m-5539 60 c50 -32 207 -151 239 -181 41 -39 69 -94 82 -167 14 -72 14 -150 1
-120 -17 40 -245 262 -297 291 l-53 29 -1 60 c0 33 -2 70 -5 83 -5 27 -1 27
34 5z m4584 -505 c98 -56 324 -402 424 -651 20 -49 33 -95 30 -103 -3 -8 -2
-13 3 -9 5 3 18 -18 29 -47 11 -29 27 -66 36 -83 22 -44 30 -85 17 -85 -6 0
-25 29 -43 64 -17 36 -35 63 -40 60 -4 -3 -8 2 -8 10 0 8 -4 18 -10 21 -6 4
-7 -1 -3 -12 4 -11 -6 -6 -27 15 -19 17 -37 32 -41 32 -13 0 -20 -18 -9 -25 5
-3 10 -13 10 -22 0 -11 -6 -14 -22 -9 -93 27 -154 34 -202 24 -57 -12 -111
-37 -141 -66 -17 -15 -23 -16 -32 -6 -13 13 -130 209 -157 262 -22 44 -13 55
67 76 110 30 114 33 149 104 28 56 33 78 33 137 0 65 -4 79 -54 183 -30 62
-61 118 -68 124 -7 6 -13 14 -13 19 0 16 31 10 72 -13z m-3208 -215 c10 -112
24 -186 53 -277 23 -72 31 -85 96 -148 109 -107 195 -152 412 -218 84 -26 222
-35 325 -22 41 5 76 8 78 7 1 -1 -4 -31 -12 -66 -8 -35 -18 -98 -22 -139 -9
-103 -12 -107 -81 -111 -107 -6 -317 -4 -434 5 -105 8 -119 7 -161 -12 -32
-14 -51 -30 -62 -54 -38 -82 -41 -308 -5 -445 11 -43 29 -111 40 -151 10 -41
21 -78 24 -83 4 -5 0 -9 -7 -9 -10 0 -10 -2 0 -9 8 -5 12 -16 10 -25 -1 -10
-50 78 -107 195 -95 195 -107 227 -142 370 -21 86 -42 182 -45 213 -4 31 -10
56 -14 56 -11 0 -28 140 -34 275 -7 155 9 495 29 590 34 167 49 181 59 58z
m2131 -133 c34 -66 91 -316 110 -482 10 -87 8 -291 -4 -334 -5 -21 -15 -93
-21 -159 -12 -141 -17 -168 -30 -160 -5 3 -14 22 -21 43 -43 134 -121 239
-230 314 -42 28 -48 29 -119 24 -105 -8 -141 -20 -189 -66 -23 -22 -43 -40
-45 -40 -2 0 -6 35 -10 78 -3 42 -12 119 -20 171 l-13 93 66 -6 c77 -8 191 13
259 47 57 28 149 128 180 195 28 61 51 181 52 265 0 62 9 67 35 17z m-2964
-69 c-3 -51 24 -113 58 -134 18 -10 46 -16 79 -14 28 1 53 -1 57 -5 4 -4 -8
-26 -27 -50 -19 -24 -56 -80 -82 -125 -42 -71 -76 -109 -76 -84 0 8 -12 11
-75 16 -22 1 -45 3 -52 4 -21 2 -25 64 -9 135 15 61 80 237 108 289 14 27 23
13 19 -32z m6252 -206 c203 -517 321 -1108 382 -1900 3 -44 8 -100 10 -125 2
-25 7 -115 11 -202 l6 -156 -66 -7 c-37 -4 -68 -6 -70 -4 -2 2 -7 56 -10 119
-26 446 -127 1099 -242 1565 -38 153 -139 477 -185 593 -32 80 -33 86 -19 77
5 -3 7 0 5 8 -3 7 5 25 19 40 13 14 26 29 27 34 17 39 65 111 70 105 4 -4 32
-70 62 -147z m-8003 126 c0 -5 27 -46 61 -92 56 -76 60 -84 49 -108 -7 -14
-28 -69 -47 -121 -119 -323 -201 -609 -247 -865 -24 -133 -99 -595 -110 -680
-19 -144 -31 -265 -46 -475 -6 -80 -13 -150 -15 -156 -2 -8 -25 -10 -72 -7
-37 3 -69 7 -71 8 -2 2 2 103 8 226 24 494 116 1148 217 1544 43 170 181 582
225 671 28 57 48 80 48 55z m5457 -203 c68 -77 133 -272 95 -286 -23 -8 -86
73 -137 178 -48 99 -49 102 -31 116 28 20 49 17 73 -8z m-303 -14 c3 -8 2 -12
-4 -9 -6 3 -10 10 -10 16 0 14 7 11 14 -7z m-1285 -51 c47 -175 52 -204 53
-358 1 -134 -11 -315 -22 -315 -11 0 -27 44 -54 150 -48 190 -58 437 -22 524
19 46 33 46 45 -1z m1299 2 c-3 -3 -9 2 -12 12 -6 14 -5 15 5 6 7 -7 10 -15 7
-18z m-32 -657 c25 -50 48 -90 147 -263 101 -174 300 -436 470 -620 36 -38 64
-71 63 -73 -2 -1 -40 -9 -84 -17 -190 -33 -428 -109 -592 -188 -67 -32 -101
-57 -160 -117 -78 -80 -134 -167 -124 -194 3 -8 20 -24 38 -35 24 -15 39 -18
66 -12 31 7 226 88 380 158 151 69 232 101 424 169 115 41 216 74 224 74 8 0
51 -31 96 -68 239 -201 491 -360 704 -445 l42 -17 0 -135 c0 -88 -4 -135 -11
-135 -10 0 -231 88 -238 95 -2 2 21 28 52 57 54 53 94 114 82 126 -3 3 -20 0
-38 -7 -18 -7 -70 -27 -116 -43 -98 -35 -161 -35 -321 0 -273 60 -468 52 -720
-30 -244 -79 -459 -230 -567 -396 -57 -89 -103 -231 -103 -322 0 -111 9 -115
65 -29 57 89 145 196 145 177 0 -7 -5 -29 -10 -48 -16 -54 -13 -218 6 -316 43
-232 144 -392 301 -477 174 -94 485 -83 637 22 172 120 296 417 296 710 0 176
-15 264 -66 385 -6 16 5 13 62 -19 93 -52 173 -107 207 -143 38 -40 52 -134
37 -246 -11 -79 -70 -271 -115 -371 -46 -103 -141 -207 -283 -309 -86 -62 -46
-69 68 -11 83 42 190 113 190 127 0 6 -7 19 -16 29 -15 16 -13 21 24 61 93
102 215 269 256 348 24 47 67 146 97 220 83 212 82 212 75 -50 -10 -329 -44
-680 -111 -1138 -51 -349 -57 -375 -105 -432 -98 -117 -318 -305 -478 -408
-288 -186 -727 -377 -1047 -456 -187 -46 -633 -113 -900 -135 -105 -9 -412 -7
-465 3 -14 2 -65 7 -115 11 -220 15 -716 110 -955 181 -160 48 -502 190 -640
266 -41 23 -95 52 -120 66 -205 113 -567 419 -600 508 -25 66 -134 773 -159
1029 -12 117 -41 611 -41 684 l0 44 20 -26 c11 -14 31 -55 45 -90 48 -130 109
-263 152 -336 52 -88 166 -233 223 -285 44 -40 47 -48 25 -66 -8 -7 -15 -16
-15 -21 0 -20 278 -195 299 -187 15 5 -8 29 -84 90 -170 136 -229 220 -299
428 -45 134 -60 231 -53 348 8 134 36 169 203 252 118 59 130 61 110 23 -56
-110 -95 -368 -76 -511 34 -256 163 -499 310 -584 221 -128 570 -95 733 68 59
58 127 161 155 234 47 118 73 337 53 444 -6 33 -10 61 -8 63 2 1 35 -44 74
-100 79 -114 97 -134 108 -117 18 30 -36 303 -76 383 -118 234 -454 428 -835
483 -102 15 -135 15 -252 5 -136 -12 -227 -28 -317 -55 -73 -23 -95 -20 -212
24 -113 42 -128 46 -138 30 -9 -14 13 -49 67 -107 28 -28 47 -56 44 -61 -10
-16 -184 -82 -216 -82 l-30 0 0 131 c0 149 -8 131 114 259 110 114 346 408
386 479 12 22 110 -3 400 -99 272 -91 346 -122 848 -352 31 -14 59 -18 102
-16 32 1 60 0 62 -2 3 -3 22 -27 43 -55 91 -118 411 -397 522 -455 34 -17 45
-19 67 -9 14 7 26 16 26 20 0 24 -50 158 -115 308 -41 95 -75 176 -75 179 0 3
23 -26 51 -64 247 -330 535 -571 980 -817 73 -41 170 -77 205 -77 16 0 22 -4
18 -14 -3 -8 -1 -17 4 -20 19 -12 5 81 -42 274 -27 107 -51 230 -55 274 l-7
79 84 246 c211 622 232 691 286 931 57 254 96 534 96 695 0 36 2 65 5 65 2 0
17 -24 31 -52z m-2851 -88 c74 -332 197 -633 384 -944 39 -66 69 -121 67 -123
-2 -3 -21 4 -43 15 -72 36 -187 70 -453 133 -126 30 -150 33 -357 36 -141 3
-223 8 -223 15 0 5 26 47 58 91 173 241 325 486 442 714 52 100 95 181 96 180
2 -1 14 -54 29 -117z m5457 -275 c16 17 82 -421 107 -725 21 -244 24 -314 23
-605 -1 -448 -36 -889 -97 -1205 -55 -290 -71 -365 -111 -527 -82 -337 -172
-579 -329 -888 -179 -351 -355 -604 -574 -825 -62 -63 -93 -90 -68 -60 56 69
176 247 246 367 30 51 59 89 64 86 6 -3 7 -1 4 5 -10 15 3 43 16 35 5 -3 7 -1
4 4 -4 6 33 93 82 194 49 101 121 261 162 356 63 150 75 171 88 160 14 -10 14
-10 3 5 -12 15 -10 27 8 80 161 460 202 602 254 878 71 379 105 681 127 1145
15 318 6 1072 -15 1265 -8 74 -17 178 -20 230 -5 85 -5 91 7 57 6 -22 15 -36
19 -32z m-7563 -57 c-18 -213 -27 -1018 -15 -1293 3 -66 8 -196 12 -290 3 -93
7 -176 9 -185 1 -8 6 -55 9 -105 4 -49 9 -101 11 -115 3 -14 9 -63 15 -110 33
-293 43 -370 66 -500 44 -255 88 -412 231 -824 157 -455 456 -1034 686 -1326
l59 -75 -59 60 c-278 286 -452 532 -627 882 -267 534 -406 1046 -495 1823 -36
311 -49 1077 -23 1355 29 310 102 785 121 785 4 0 4 -37 0 -82z m-584 -1339
c135 -12 249 -29 265 -39 9 -6 14 -53 18 -170 l5 -163 -44 27 c-92 57 -208
107 -304 131 -99 24 -124 22 -112 -9 3 -8 57 -40 119 -70 125 -60 241 -134
306 -195 34 -32 43 -48 47 -83 3 -24 9 -90 15 -148 6 -58 24 -186 41 -285 16
-99 32 -196 34 -215 5 -33 -7 -22 -182 155 -262 267 -427 479 -583 750 -70
121 -150 286 -150 309 0 12 18 16 83 19 106 4 315 -2 442 -14z m9193 15 c40
-5 52 -11 52 -24 0 -45 -184 -376 -308 -555 -140 -201 -257 -341 -461 -550
-129 -131 -147 -146 -143 -120 2 17 14 98 28 182 13 83 33 234 44 335 l20 183
38 35 c68 61 237 170 324 207 111 47 121 57 100 91 -15 22 -192 -30 -322 -95
-63 -32 -118 -60 -123 -62 -4 -1 -7 65 -6 148 1 130 4 153 18 161 24 12 284
50 409 59 143 11 266 12 330 5z m-6726 -363 c41 -47 46 -70 24 -122 -52 -122
-204 -146 -282 -44 -47 62 -23 154 53 195 30 16 52 20 102 17 62 -3 66 -5 103
-46z m3352 -15 c72 -30 94 -100 57 -182 -34 -75 -101 -107 -175 -82 -49 16
-77 53 -83 110 -8 66 22 116 92 152 37 20 66 20 109 2z m-5955 -590 c23 -22
28 -33 21 -46 -15 -27 -108 -367 -140 -510 -44 -193 -73 -469 -65 -610 6 -123
39 -373 55 -430 13 -45 12 -59 -1 -40 -9 12 -10 12 -5 -3 3 -10 6 -26 7 -35 0
-14 2 -13 10 3 7 15 8 11 4 -17 -3 -20 -1 -39 5 -43 6 -4 8 1 4 12 -3 10 3 5
12 -12 10 -16 18 -43 18 -60 1 -16 6 -29 12 -28 6 1 10 -9 8 -24 -3 -33 5 -54
20 -46 6 3 8 3 4 -2 -4 -4 -3 -17 3 -28 23 -43 -11 -4 -56 62 -154 233 -256
593 -257 906 0 259 37 510 132 883 33 129 60 237 60 239 0 2 27 -29 59 -69 33
-40 73 -86 90 -102z m9216 -121 c162 -636 162 -1017 -1 -1452 -20 -54 -50
-125 -66 -158 -38 -75 -169 -277 -176 -270 -3 3 2 13 10 22 9 10 24 34 33 53
10 19 21 37 24 40 3 3 6 10 6 15 0 6 17 62 37 125 46 144 63 215 83 360 37
271 30 454 -31 798 -49 275 -70 372 -105 485 -26 84 -28 102 -17 117 7 10 38
51 68 90 l55 73 13 -44 c7 -24 37 -138 67 -254z m-2855 166 c0 -5 -7 -11 -14
-14 -10 -4 -13 -1 -9 9 6 15 23 19 23 5z m26 -23 c-9 -5 -22 -7 -29 -4 -7 2
-4 5 6 5 10 1 15 5 12 11 -4 6 1 7 11 3 15 -6 15 -7 0 -15z m34 -7 c0 -5 -7
-12 -16 -15 -14 -5 -15 -4 -4 9 14 17 20 19 20 6z m-290 -85 c8 -3 5 -4 -7 -2
-30 6 -29 -7 2 -24 14 -7 23 -15 20 -18 -2 -3 -11 1 -19 7 -8 7 -21 9 -27 5
-7 -4 -9 -3 -5 4 7 12 -13 21 -32 14 -11 -4 -11 -6 0 -13 10 -7 9 -9 -4 -9
-10 0 -18 4 -18 9 0 13 -28 22 -35 10 -4 -5 -1 -8 5 -7 16 4 21 -24 6 -37 -14
-12 -56 -18 -56 -7 0 4 10 8 21 9 41 3 40 21 -1 25 -31 4 -39 -26 -14 -53 11
-12 13 -19 5 -19 -7 0 -10 -4 -7 -8 3 -5 -1 -9 -8 -9 -8 0 -12 6 -9 14 3 7 0
13 -7 13 -7 0 -10 7 -6 16 3 8 2 12 -3 9 -11 -6 -9 -44 4 -65 8 -13 6 -13 -8
-1 -18 14 -24 2 -8 -14 6 -6 2 -19 -10 -34 l-20 -25 -30 31 -30 30 17 35 c12
25 22 35 33 31 13 -4 13 -3 2 5 -21 15 18 77 47 76 17 0 19 2 10 13 -8 10 -8
17 1 26 9 9 14 9 22 -3 8 -11 9 -9 4 9 -5 16 -4 21 4 17 6 -4 11 -3 11 3 0 25
47 15 90 -20 25 -20 52 -39 60 -43z m530 45 c14 -27 -2 -64 -39 -90 -24 -18
-35 -20 -51 -11 -50 27 -48 83 3 105 45 20 75 18 87 -4z m-3694 -6 c-3 -8 -2
-15 3 -15 4 0 8 -7 8 -15 0 -11 -4 -12 -14 -4 -9 9 -17 8 -28 -1 -8 -7 -15 -9
-15 -4 0 5 -4 3 -9 -4 -4 -7 -18 -14 -29 -15 -12 -1 -22 -5 -22 -9 0 -4 14 -5
30 -3 17 2 30 0 30 -4 0 -3 -25 -8 -56 -9 -34 -1 -53 1 -49 7 3 6 12 8 20 4 8
-3 15 0 15 7 0 6 -4 9 -8 6 -4 -2 -14 -1 -22 5 -11 6 -4 9 23 9 40 0 85 19
106 44 17 20 25 20 17 1z m321 -12 c24 -31 -9 -106 -55 -125 -15 -7 -35 -21
-44 -32 l-17 -21 4 23 c2 12 0 22 -4 22 -5 0 -16 16 -25 35 -16 32 -16 38 -1
69 10 20 29 39 43 45 35 13 84 5 99 -16z m-327 -27 c0 -3 -4 -8 -10 -11 -5 -3
-10 -1 -10 4 0 6 5 11 10 11 6 0 10 -2 10 -4z m-200 -46 c0 -5 -2 -10 -4 -10
-3 0 -8 5 -11 10 -3 6 -1 10 4 10 6 0 11 -4 11 -10z m66 -35 c-9 -9 -16 -13
-16 -8 0 12 22 34 28 28 2 -2 -3 -11 -12 -20z m-140 -54 c0 -16 -3 -17 -14 -9
-12 10 -7 19 13 28 1 0 1 -9 1 -19z m34 -19 c0 -4 -6 -14 -12 -21 -11 -11 -10
-14 0 -18 6 -3 9 -9 6 -15 -4 -6 -10 -5 -15 3 -7 11 -9 10 -9 -3 0 -9 6 -18
13 -21 6 -2 9 -8 5 -12 -4 -4 -14 -2 -22 4 -10 8 -16 9 -21 1 -3 -5 1 -10 9
-10 19 0 22 -20 4 -20 -20 -1 21 -22 51 -26 57 -9 127 -11 156 -3 17 4 53 10
80 13 l50 5 -40 -15 c-61 -24 -235 -24 -308 0 -74 24 -161 76 -165 99 -2 9 2
17 8 17 6 0 9 -4 6 -9 -3 -5 2 -15 11 -22 14 -12 16 -12 11 2 -5 13 -1 15 20
12 15 -2 38 -4 51 -4 13 1 32 -6 42 -15 16 -14 18 -14 28 5 14 25 14 34 1 26
-5 -3 -10 -1 -10 5 0 7 7 10 15 6 9 -3 15 0 15 9 0 8 5 15 10 15 6 0 10 -4 10
-8z m3574 -28 c3 -8 2 -12 -4 -9 -6 3 -10 10 -10 16 0 14 7 11 14 -7z m-24
-16 c0 -19 -2 -20 -10 -8 -13 19 -13 30 0 30 6 0 10 -10 10 -22z m-339 -5 c-6
-12 -5 -21 7 -31 15 -11 14 -12 -5 -3 -15 8 -20 17 -16 31 3 11 10 20 15 20 5
0 5 -7 -1 -17z m409 10 c-1 -21 -19 -35 -36 -28 -18 8 -18 8 -1 12 9 3 17 9
17 14 0 5 5 9 10 9 6 0 10 -3 10 -7z m-3200 -6 c0 -2 -10 -12 -22 -23 l-23
-19 19 23 c18 21 26 27 26 19z m2834 -5 c3 -5 -1 -9 -9 -9 -8 0 -12 4 -9 9 3
4 7 8 9 8 2 0 6 -4 9 -8z m439 -6 c16 -12 12 -16 -36 -35 -30 -12 -66 -23 -81
-25 -15 -1 -31 -7 -37 -13 -13 -13 62 0 106 18 17 7 32 13 35 14 3 0 25 11 50
23 l45 23 -30 -26 c-55 -46 -190 -86 -284 -84 l-46 1 53 10 c30 5 51 12 48 15
-11 11 29 32 61 33 24 0 33 5 39 23 12 38 44 48 77 23z m-3368 -56 c-3 -5 -12
-10 -18 -10 -7 0 -6 4 3 10 19 12 23 12 15 0z m3062 -36 c-3 -3 -12 -4 -19 -1
-8 3 -5 6 6 6 11 1 17 -2 13 -5z m4740 -1450 c-3 -3 -12 -4 -19 -1 -8 3 -5 6
6 6 11 1 17 -2 13 -5z m-8146 -220 l30 -15 -34 -47 c-73 -100 -80 -141 -52
-289 24 -124 27 -115 -98 -249 -63 -66 -120 -135 -128 -152 -17 -39 -27 -40
-35 -6 -21 83 45 218 135 275 l25 16 -23 78 c-47 156 -11 302 93 383 34 26 47
27 87 6z m3700 -16 c18 -18 46 -62 63 -97 25 -55 30 -77 29 -140 0 -42 -8
-104 -18 -139 l-18 -62 62 -65 c72 -75 101 -131 101 -200 0 -91 -9 -90 -115
15 -61 60 -94 101 -92 111 12 45 -52 74 -125 57 -24 -5 -47 -13 -52 -19 -6 -5
-15 -9 -20 -9 -6 0 6 14 27 31 71 59 127 190 127 300 0 63 -12 95 -63 166 -38
54 -27 73 50 82 6 0 26 -14 44 -31z m-2141 -349 c165 -15 359 -13 555 6 88 8
167 15 176 15 14 0 18 -14 20 -79 5 -98 22 -125 105 -165 l59 -28 -29 -22
c-182 -132 -401 -342 -561 -539 -43 -53 -81 -97 -84 -97 -3 1 -22 26 -41 57
-51 82 -273 307 -435 442 -77 64 -153 125 -168 134 l-28 18 58 29 c87 44 124
109 116 203 l-4 48 68 -5 c37 -3 124 -11 193 -17z m-1842 -701 c37 -11 40 -23
12 -40 -11 -7 -45 -43 -76 -80 -31 -38 -60 -68 -65 -68 -13 0 -98 54 -99 63 0
16 74 99 109 123 35 24 47 24 119 2z m4330 -63 l54 -58 -40 -40 -41 -40 -38
34 c-55 49 -113 121 -113 141 0 21 23 28 80 23 40 -3 51 -9 98 -60z m-2813
-126 c13 -13 9 -156 -15 -532 -22 -346 -26 -604 -9 -707 16 -92 8 -116 -39
-129 -53 -15 -69 -14 -93 10 -18 18 -20 29 -15 77 3 32 11 145 16 252 6 107
17 319 25 470 9 151 18 322 21 380 7 137 11 166 31 185 16 17 58 13 78 -6z
m1223 4 c5 -10 12 -87 16 -171 4 -84 15 -266 26 -405 26 -336 44 -719 36 -762
-6 -29 -12 -35 -40 -40 -97 -19 -112 10 -96 179 13 136 2 515 -25 866 -21 269
-20 298 7 327 25 27 64 30 76 6z m-2975 -71 c20 -14 37 -28 37 -32 0 -4 -17
-29 -39 -56 -73 -93 -138 -200 -231 -379 -51 -99 -129 -247 -175 -330 -45 -82
-110 -201 -144 -263 -34 -63 -119 -202 -190 -310 -238 -366 -312 -514 -341
-682 -13 -72 -26 -103 -41 -95 -22 14 2 238 37 342 34 103 91 225 184 393 53
96 146 270 205 385 210 409 334 624 531 925 103 157 92 150 167 102z m4724 6
c87 -93 351 -538 536 -903 64 -127 149 -286 188 -355 279 -489 346 -703 309
-988 -10 -75 -29 -157 -35 -151 -1 2 4 40 12 84 13 66 13 94 4 157 -13 86 -66
262 -106 352 -76 173 -301 551 -500 841 -48 69 -149 246 -239 418 -156 297
-203 379 -257 448 -16 20 -29 44 -29 52 0 14 66 77 80 77 3 0 20 -15 37 -32z
m-3044 -1457 c4 -1 7 -34 7 -75 0 -81 -12 -103 -54 -92 -16 4 -25 15 -30 37
-7 37 -8 124 -1 130 3 4 50 4 78 0z m1367 -73 c0 -84 -8 -100 -45 -100 -15 0
-31 6 -36 13 -10 16 -12 143 -2 152 3 4 24 7 45 7 l38 0 0 -72z m1870 -174
c-60 -28 -284 -123 -340 -144 -63 -24 -211 -103 -242 -128 -17 -14 -42 -51
-57 -81 -17 -34 -33 -55 -41 -53 -8 2 -27 4 -43 4 -27 1 -28 3 -23 31 14 69
53 133 104 170 104 77 320 157 556 206 131 28 153 26 86 -5z m-4899 -43 c99
-33 274 -111 327 -145 59 -38 92 -79 117 -148 l24 -65 -51 -12 c-58 -13 -77
-7 -30 10 21 7 29 15 25 25 -3 9 0 14 8 12 19 -4 14 37 -7 65 -11 14 -14 16
-11 5 3 -9 -1 -19 -9 -22 -9 -3 -12 -11 -8 -17 4 -8 3 -9 -4 -5 -7 4 -12 15
-12 25 0 9 -7 26 -16 37 -13 16 -15 16 -10 2 3 -10 1 -18 -5 -18 -6 0 -7 -5
-4 -10 4 -6 11 -8 16 -5 11 7 12 -5 1 -21 -4 -8 -16 2 -31 26 -25 40 -81 80
-262 186 -63 37 -115 71 -117 76 -2 4 -10 8 -18 8 -8 0 -14 5 -14 10 0 13 -6
14 91 -19z m419 -297 c0 -8 -4 -12 -10 -9 -5 3 -10 10 -10 16 0 5 5 9 10 9 6
0 10 -7 10 -16z m-23 -36 c2 -17 0 -19 -7 -8 -5 8 -6 18 -4 22 8 12 10 10 11
-14z m3842 -200 c69 -40 181 -145 236 -223 61 -86 97 -162 90 -188 -5 -16 -4
-18 3 -8 20 29 84 -202 80 -291 l-1 -43 -4 38 c-5 45 -18 49 -21 5 -4 -51 -12
-46 -13 8 -1 50 -15 112 -19 84 -1 -8 -2 -18 -1 -22 0 -5 -4 -8 -9 -8 -6 0
-10 -4 -10 -10 0 -5 7 -6 17 -3 11 4 14 3 9 -5 -9 -14 -52 -16 -61 -3 -3 5 0
11 7 14 7 2 5 3 -4 2 -19 -3 -24 10 -8 20 6 3 10 11 10 17 0 6 -9 1 -20 -12
-24 -28 -24 -27 -5 -46 8 -9 15 -12 15 -8 0 4 3 4 7 1 3 -4 -6 -18 -21 -32
-30 -28 -38 -31 -35 -12 3 27 -2 37 -18 37 -11 0 -14 -3 -7 -8 12 -8 12 -88
-1 -99 -4 -5 -5 1 -1 12 6 16 5 18 -5 8 -10 -10 -10 -16 -1 -25 15 -15 16 -32
1 -22 -8 4 -8 0 0 -15 10 -17 9 -20 -4 -15 -8 4 -15 11 -15 18 0 6 -5 4 -10
-4 -6 -9 -10 -10 -10 -3 0 6 5 15 10 18 13 8 13 56 0 75 -8 11 -9 5 -7 -22 3
-21 0 -38 -5 -38 -6 0 -8 29 -5 73 3 39 2 56 -1 37 l-8 -35 -7 33 c-4 20 -2
42 5 55 6 12 11 23 10 25 -1 1 -2 8 -2 15 1 7 6 5 14 -5 14 -19 46 -25 46 -8
0 5 -7 7 -16 3 -12 -4 -15 -2 -12 8 3 8 11 13 17 11 6 -1 11 11 11 29 0 18 8
38 18 46 15 13 15 13 -6 3 -13 -7 -26 -9 -29 -6 -3 3 2 8 11 12 9 3 16 10 16
16 0 5 -5 6 -12 2 -7 -5 -8 -3 -4 5 5 7 15 10 23 7 8 -3 11 -1 8 4 -3 6 -1 10
4 10 6 0 11 4 11 10 0 11 -77 -23 -130 -57 l-34 -23 -56 108 c-66 129 -145
231 -240 308 -64 51 -83 74 -62 74 4 0 33 22 64 49 56 48 58 49 100 39 23 -5
67 -23 97 -40z m-3680 -5 c36 -25 67 -47 69 -49 2 -1 -23 -26 -55 -55 -130
-121 -243 -268 -293 -383 -20 -43 -24 -47 -48 -42 -26 5 -26 5 -4 -6 13 -6 21
-17 18 -23 -2 -6 -12 -39 -21 -74 -12 -41 -21 -58 -26 -49 -7 10 -9 9 -9 -5 0
-15 -4 -14 -25 7 -14 14 -25 31 -25 39 0 24 -45 54 -78 52 -19 -1 -29 2 -25 8
4 7 -1 8 -12 3 -15 -5 -16 -4 -5 9 8 10 9 15 1 15 -6 0 -11 7 -11 16 0 8 4 12
10 9 6 -3 7 1 4 10 -9 22 -22 7 -39 -41 -28 -78 -14 1 16 90 65 196 176 356
306 442 59 39 135 73 167 74 10 0 48 -21 85 -47z m789 23 c10 -11 -36 -154
-90 -276 -112 -254 -228 -460 -356 -627 -98 -128 -87 -125 -176 -58 -42 32
-76 59 -76 62 0 2 25 33 55 69 210 247 331 465 461 833 3 11 22 13 90 8 47 -2
88 -8 92 -11z m2137 -111 c23 -66 56 -152 73 -191 72 -163 210 -383 321 -511
39 -46 67 -83 62 -83 -5 0 -41 -25 -80 -55 l-70 -54 -41 46 c-50 57 -141 184
-203 283 -94 152 -272 549 -283 634 -7 45 -7 45 27 49 19 2 61 4 93 3 l59 -1
42 -120z m-2671 -130 c39 -14 77 -28 84 -30 17 -6 -15 -69 -105 -205 -86 -129
-140 -197 -295 -368 -111 -122 -123 -133 -135 -116 -27 38 -7 200 42 323 58
150 158 299 253 381 26 22 55 40 66 40 10 0 51 -11 90 -25z m3148 -32 c138
-132 239 -328 277 -537 17 -90 14 -146 -5 -146 -25 0 -233 214 -311 320 -96
130 -233 356 -221 364 2 2 35 14 73 28 106 39 117 37 187 -29z m458 -323 c0
-5 -4 -10 -10 -10 -5 0 -10 5 -10 10 0 6 5 10 10 10 6 0 10 -4 10 -10z m-40
-50 c0 -11 -2 -20 -4 -20 -2 0 -6 9 -9 20 -3 11 -1 20 4 20 5 0 9 -9 9 -20z
m57 -252 c-3 -8 -6 -5 -6 6 -1 11 2 17 5 13 3 -3 4 -12 1 -19z m-20 -45 c-3
-10 -5 -2 -5 17 0 19 2 27 5 18 2 -10 2 -26 0 -35z m-3720 -30 c-4 -3 -7 -1
-7 5 0 7 -5 12 -11 12 -5 0 -7 -4 -4 -10 3 -5 1 -19 -5 -30 -8 -15 -8 -20 2
-20 8 0 15 -11 16 -25 1 -14 -3 -25 -9 -25 -5 0 -8 4 -5 8 3 5 -1 9 -9 9 -8 0
-11 -5 -8 -10 3 -5 -1 -13 -8 -18 -10 -6 -11 -9 -1 -9 6 0 12 -7 12 -15 0 -13
-4 -12 -22 5 -15 14 -24 16 -29 9 -4 -7 -12 -8 -19 -4 -9 5 -11 4 -6 -3 4 -7
1 -12 -8 -12 -9 0 -16 5 -16 12 0 6 -9 1 -20 -12 -11 -13 -20 -17 -20 -10 0 7
-7 10 -15 6 -8 -3 -14 -2 -14 2 3 20 -2 33 -11 27 -5 -3 -10 -2 -10 3 0 5 39
45 86 90 l85 81 31 -30 c17 -16 28 -32 25 -36z m3750 27 c-2 -28 -5 -32 -23
-29 -4 0 -11 -5 -15 -13 -7 -10 -9 -8 -9 6 0 12 5 16 15 12 14 -5 19 6 18 42
-1 6 3 12 8 12 4 0 7 -13 6 -30z m-442 -17 c0 -6 3 -15 8 -19 4 -4 7 -1 7 7 0
7 29 -16 65 -51 71 -70 73 -77 50 -165 -10 -38 -14 -43 -13 -20 0 45 -2 52
-12 30 -8 -18 -9 -17 -9 8 -1 15 -4 26 -8 26 -22 -4 -33 3 -34 19 0 10 -3 12
-6 5 -2 -7 -12 -13 -21 -13 -14 0 -14 2 -3 9 15 10 7 31 -12 31 -9 0 -9 -2 -1
-8 9 -5 8 -10 -2 -19 -8 -8 -15 -9 -19 -3 -3 6 -2 10 3 10 16 0 6 42 -13 56
-18 13 -17 14 6 14 18 0 20 3 10 9 -8 5 -21 6 -30 3 -13 -5 -14 -4 -1 10 8 8
22 13 30 10 11 -4 10 -1 -3 12 -13 13 -15 22 -7 31 8 9 8 15 0 18 -6 3 -5 4 2
3 7 -2 13 -8 13 -13z m-15 -134 c0 -5 -4 -9 -10 -9 -5 0 -10 7 -10 16 0 8 5
12 10 9 6 -3 10 -10 10 -16z m-3510 -9 c0 -5 -5 -10 -11 -10 -5 0 -7 5 -4 10
3 6 8 10 11 10 2 0 4 -4 4 -10z m155 -9 c3 -5 1 -12 -5 -16 -5 -3 -10 1 -10 9
0 18 6 21 15 7z m3322 -13 c2 -17 0 -19 -7 -8 -5 8 -6 18 -4 22 8 12 10 10 11
-14z m33 -28 c0 -5 -4 -10 -10 -10 -5 0 -10 5 -10 10 0 6 5 10 10 10 6 0 10
-4 10 -10z m50 -4 c0 -9 -7 -12 -20 -9 -11 3 -17 9 -14 14 8 14 34 10 34 -5z
m-3879 -615 c0 -36 4 -75 9 -86 8 -18 9 -18 9 -2 1 18 2 18 19 1 16 -16 17
-16 20 -1 2 9 11 17 20 18 10 0 12 3 5 6 -9 3 -7 11 7 26 11 11 20 29 20 39 0
22 -8 23 81 -7 41 -14 119 -37 174 -51 101 -26 141 -42 72 -29 -24 5 -42 3
-52 -5 -15 -13 -10 -35 6 -25 14 9 11 -5 -5 -21 -19 -18 -30 -18 -22 1 3 9 0
15 -10 15 -9 0 -12 -5 -8 -11 3 -6 0 -15 -7 -20 -10 -6 -11 -9 -1 -9 6 0 12
-7 12 -15 0 -8 -8 -15 -17 -15 -12 0 -14 3 -7 8 9 5 8 11 -2 20 -14 13 -19 5
-15 -20 0 -5 -6 -8 -14 -8 -8 0 -15 -9 -15 -20 0 -15 7 -20 28 -21 l27 -2 -30
-5 c-27 -4 -28 -5 -10 -13 13 -5 5 -7 -27 -5 -39 3 -48 0 -49 -13 0 -9 -5 -4
-11 12 -5 15 -17 27 -26 27 -14 0 -15 -2 -2 -10 8 -5 11 -12 7 -16 -4 -4 -3
-12 3 -18 5 -7 5 -17 0 -26 -8 -13 -10 -12 -10 2 0 12 -5 15 -16 11 -11 -4
-12 -8 -4 -13 16 -10 -9 -50 -27 -43 -19 8 -16 -14 5 -27 15 -10 15 -11 -3 -5
-11 3 -52 16 -92 27 -100 30 -111 41 -124 118 -10 60 -5 253 8 307 5 21 6 21
39 6 33 -16 34 -18 35 -82z m4372 -6 c12 -101 5 -259 -13 -280 -20 -24 -71
-48 -189 -89 -111 -39 -130 -43 -91 -21 l25 14 -25 1 c-18 0 -21 3 -11 9 7 5
23 7 35 4 20 -3 20 -3 1 5 -30 14 -71 9 -67 -8 2 -10 -3 -8 -16 5 -19 20 -19
20 7 26 16 4 19 7 8 8 -10 0 -15 6 -12 11 4 6 10 8 15 5 5 -3 8 3 7 14 0 11
-4 19 -7 19 -22 -2 -40 4 -35 11 3 5 -3 12 -12 14 -10 3 5 5 32 6 35 1 46 4
35 10 -8 6 -19 7 -25 4 -7 -4 -7 -2 0 5 6 5 19 12 30 15 11 3 3 5 -19 6 -28 1
-37 -2 -33 -13 4 -9 -3 -13 -21 -13 -23 0 -24 1 -9 12 25 18 21 26 -8 15 -26
-10 -34 -4 -30 23 2 9 -1 17 -6 17 -5 0 -10 -8 -10 -17 -1 -17 -2 -17 -6 0 -2
9 -9 17 -15 17 -5 0 -8 -7 -4 -15 3 -8 1 -15 -4 -15 -6 0 -10 6 -10 13 0 9
-11 12 -32 10 l-33 -3 30 15 30 14 -27 1 c-16 0 -28 5 -28 11 0 5 4 8 9 4 5
-3 12 -1 16 5 9 15 38 13 29 -2 -4 -7 -3 -9 1 -5 5 4 10 14 11 22 2 15 -27 14
-106 -4 -22 -5 -40 -6 -40 -2 0 3 55 19 123 34 67 16 155 40 196 53 40 14 79
23 85 20 6 -2 1 -5 -10 -5 -12 -1 -28 -9 -35 -18 -12 -15 -12 -16 7 -11 25 6
54 -8 39 -19 -5 -5 -11 -16 -11 -26 -1 -10 0 -16 3 -13 11 11 42 -15 37 -29
-5 -11 -2 -13 10 -9 9 3 16 2 16 -4 0 -6 -6 -13 -12 -15 -7 -3 -1 -6 14 -6 17
-1 28 5 31 17 3 9 6 -5 7 -33 2 -42 4 -35 16 49 19 141 47 211 82 204 13 -3
19 -20 25 -73z m-4308 37 c-3 -3 -11 0 -18 7 -9 10 -8 11 6 5 10 -3 15 -9 12
-12z m35 -6 c0 -2 -7 -7 -16 -10 -8 -3 -12 -2 -9 4 6 10 25 14 25 6z m317
-122 c-3 -3 -12 -4 -19 -1 -8 3 -5 6 6 6 11 1 17 -2 13 -5z m96 -1 c-7 -2 -19
-2 -25 0 -7 3 -2 5 12 5 14 0 19 -2 13 -5z m140 -30 c-7 -2 -21 -2 -30 0 -10
3 -4 5 12 5 17 0 24 -2 18 -5z m3077 -3 c-14 -9 -7 -14 13 -11 5 1 6 -3 3 -8
-4 -5 0 -12 6 -14 8 -3 6 -6 -4 -6 -10 -1 -18 4 -18 9 0 6 -8 10 -17 9 -10 0
-13 -3 -6 -5 13 -6 6 -34 -9 -34 -5 0 -6 5 -3 10 3 6 1 10 -4 10 -6 0 -11 -6
-11 -12 0 -9 -4 -8 -10 2 -5 8 -10 10 -10 4 0 -18 -49 -23 -66 -7 -16 16 -49
9 -58 -12 -3 -8 -1 -15 3 -15 5 0 11 7 15 15 3 8 11 15 18 14 10 0 10 -2 0 -6
-18 -7 -4 -23 16 -17 10 4 13 3 6 -3 -13 -9 -15 -43 -2 -43 4 0 8 8 9 18 0 12
3 11 10 -7 9 -22 14 -23 68 -19 45 3 56 1 47 -8 -6 -7 -30 -11 -54 -10 -31 2
-39 0 -27 -7 9 -5 27 -7 39 -5 36 7 49 -17 44 -78 -3 -34 -1 -51 5 -45 17 17
18 93 1 112 -14 16 -14 18 6 24 13 4 27 2 34 -5 8 -8 7 -10 -6 -5 -11 4 -18 2
-18 -4 0 -6 12 -11 26 -11 19 0 25 -4 21 -15 -4 -8 -2 -17 3 -20 6 -4 11 2 11
12 1 17 2 17 6 1 2 -10 14 -18 26 -19 21 -1 21 -1 2 -7 -11 -4 -21 -13 -23
-21 -3 -12 -1 -12 15 -1 10 8 14 10 10 5 -4 -5 3 -15 15 -23 13 -7 16 -11 7
-9 -9 3 -22 1 -30 -4 -10 -6 -6 -9 16 -9 17 0 37 -5 45 -10 11 -7 7 -9 -15 -6
-16 2 -24 1 -17 -1 10 -4 9 -8 -5 -19 -17 -12 -16 -13 7 -14 l25 -1 -24 -10
c-42 -17 -291 -77 -426 -103 -505 -97 -1109 -142 -1569 -117 -378 20 -761 67
-1096 135 -199 40 -416 100 -380 104 14 2 30 8 35 14 7 8 5 9 -5 4 -9 -5 -8
-2 3 7 25 20 21 28 -10 22 l-28 -5 25 11 c14 7 29 11 33 10 12 -2 -11 37 -25
42 -7 3 2 6 20 6 19 1 31 5 27 11 -4 6 7 10 27 10 24 0 29 3 18 10 -8 5 -12
12 -9 15 9 9 40 -6 33 -16 -3 -5 0 -9 5 -9 6 0 11 5 11 11 0 6 7 17 15 25 13
14 15 14 15 0 0 -9 -5 -16 -12 -16 -6 0 -8 -3 -5 -6 4 -4 13 -2 20 4 8 7 17 9
20 5 4 -3 7 -1 7 5 0 7 -6 12 -12 12 -8 1 -6 6 4 14 10 7 15 16 11 19 -3 4 -1
7 5 7 7 0 12 -7 12 -15 0 -8 5 -15 11 -15 6 0 9 7 5 15 -3 8 -1 15 5 15 5 0
12 -6 15 -14 6 -15 28 -16 41 -1 4 4 3 5 -4 1 -6 -3 -14 -2 -18 4 -6 9 7 14
28 11 4 0 7 3 7 9 0 5 -6 10 -12 11 -10 0 -10 2 0 6 22 9 13 25 -10 18 -18 -5
-20 -4 -8 4 13 10 13 12 0 21 -12 8 -10 10 10 10 19 0 22 2 10 9 -8 6 -17 8
-21 5 -4 -2 -11 1 -15 7 -5 8 0 10 17 6 158 -39 623 -108 802 -119 20 -1 37
-5 37 -10 0 -4 -20 -4 -45 -1 -47 5 -49 4 -39 -21 4 -11 11 -13 31 -5 31 12
36 11 28 -1 -3 -5 1 -10 10 -10 9 0 13 5 10 10 -3 6 1 10 9 10 9 0 16 -4 16
-10 0 -5 7 -10 15 -10 8 0 14 3 14 8 -4 26 4 32 44 32 31 0 45 -5 54 -20 11
-16 10 -18 -1 -14 -8 3 -17 0 -22 -7 -4 -8 -3 -10 4 -5 7 4 12 2 12 -3 0 -6
-15 -11 -32 -11 -18 0 -44 -3 -57 -7 -17 -4 -22 -3 -17 5 4 7 2 12 -3 12 -6 0
-11 -6 -11 -12 0 -9 -4 -8 -10 2 -9 13 -10 13 -10 0 0 -10 -3 -11 -8 -4 -4 6
-17 14 -29 18 -18 6 -23 3 -23 -9 0 -13 -8 -16 -37 -12 -28 2 -38 8 -37 20 1
9 -4 17 -12 17 -8 0 -14 5 -14 10 0 6 13 8 30 5 17 -3 30 -1 30 5 0 5 -6 10
-12 11 -107 7 -114 7 -86 -5 22 -9 25 -15 16 -24 -9 -9 -7 -12 13 -13 16 -1
19 -3 7 -6 -10 -2 -18 -9 -18 -14 0 -5 -8 -9 -17 -9 -15 0 -16 2 -3 10 12 7
12 10 1 10 -7 0 -11 6 -8 14 3 8 -1 17 -9 20 -28 11 -38 6 -19 -8 18 -13 17
-14 -13 -10 -18 2 -32 -1 -32 -7 0 -6 8 -9 18 -8 30 3 42 -1 42 -13 0 -6 -3
-8 -7 -5 -7 8 -33 -11 -33 -24 0 -5 5 -9 10 -9 6 0 9 3 8 8 -2 4 0 8 5 10 16
5 27 2 27 -9 0 -5 -4 -7 -10 -4 -5 3 -10 1 -10 -5 0 -8 7 -9 18 -5 9 4 24 8
32 10 8 1 9 0 3 -2 -7 -3 -13 -8 -13 -13 0 -5 -10 -11 -22 -13 -20 -4 -19 -4
5 -6 15 0 27 4 27 9 0 6 15 10 33 9 26 0 28 -2 12 -8 -11 -5 -23 -7 -27 -4 -5
2 -8 -1 -8 -6 0 -6 16 -11 35 -11 24 0 35 5 35 15 0 8 8 15 18 15 14 0 15 -2
2 -10 -26 -16 0 -25 98 -32 152 -11 1002 -21 1002 -12 0 5 33 8 72 8 l73 -1
-65 7 c-36 3 -59 7 -52 8 7 1 10 7 7 12 -5 8 -11 7 -21 -1 -8 -6 -17 -9 -21
-5 -3 3 -1 6 6 6 7 0 10 4 6 10 -3 5 -12 7 -20 4 -8 -4 -12 -11 -9 -16 4 -6
-2 -7 -16 -3 -12 4 -20 3 -17 -1 3 -5 -9 -10 -26 -10 -18 -1 -24 0 -15 3 9 2
15 10 12 18 -8 19 34 41 49 26 16 -16 27 -13 20 5 -4 12 -2 15 8 12 8 -3 14
-10 14 -15 0 -6 3 -15 8 -19 4 -4 7 0 7 9 0 9 7 17 15 17 8 0 15 5 15 10 0 6
6 5 14 -2 8 -7 11 -17 8 -22 -3 -5 0 -6 6 -2 7 4 12 4 12 -1 0 -4 17 -9 38
-10 l37 -1 -39 12 c-25 8 -35 15 -28 20 9 6 9 10 0 20 -14 13 -85 15 -106 3
-6 -5 -12 -4 -12 1 0 5 -13 7 -29 4 -16 -2 -31 0 -34 5 -4 6 15 11 41 12 26 1
77 4 114 6 49 3 70 0 79 -11 9 -11 8 -14 -10 -14 -13 0 -21 -6 -21 -17 0 -15
2 -16 10 -3 6 10 10 11 10 3 0 -7 5 -13 10 -13 6 0 10 7 10 15 0 8 7 15 15 15
8 0 18 0 23 0 4 0 7 -6 7 -12 0 -9 16 -13 47 -12 53 1 58 -10 7 -14 -18 -1
-35 -5 -38 -7 -4 -5 39 -7 119 -7 19 0 29 -2 23 -5 -19 -7 -15 -22 5 -19 9 2
58 7 107 11 76 6 86 9 65 18 -14 5 -28 9 -32 9 -5 -1 -8 2 -8 8 0 5 6 10 13
10 8 0 7 4 -3 10 -13 8 -12 10 3 10 10 0 17 -7 17 -17 0 -10 11 -23 25 -30 15
-6 25 -7 25 -1 0 5 5 6 11 3 15 -10 129 5 129 17 0 5 -4 7 -9 4 -5 -3 -12 1
-15 9 -3 9 1 18 9 21 8 4 12 10 9 16 -3 5 -12 1 -19 -8 -7 -10 -19 -15 -29
-11 -9 4 -16 2 -16 -3 0 -6 9 -10 20 -10 11 0 20 -4 20 -9 0 -13 -44 -4 -49
10 -2 8 -5 8 -10 1 -4 -6 -26 -14 -50 -18 -33 -5 -42 -4 -37 5 4 6 13 11 19
10 28 -3 57 2 57 10 0 5 -9 7 -20 4 -11 -3 -20 -1 -20 4 0 5 12 9 28 8 15 0
41 2 57 6 26 6 23 7 -17 8 -45 1 -64 14 -35 24 6 2 -3 4 -20 5 -18 0 -33 -3
-33 -8 0 -5 7 -7 15 -4 8 4 15 1 15 -5 0 -6 -11 -11 -25 -11 -18 0 -23 4 -19
15 4 9 0 15 -10 15 -9 0 -15 -6 -14 -12 2 -7 -2 -12 -9 -11 -7 2 -10 -4 -7
-15 4 -13 3 -13 -7 2 -9 15 -9 21 -1 24 7 2 12 11 12 20 0 15 -2 15 -11 2 -7
-10 -12 -11 -15 -4 -3 7 -14 9 -25 7 -16 -5 -18 -8 -7 -14 10 -7 9 -9 -4 -9
-9 0 -18 5 -20 11 -3 9 -10 9 -27 -1 -13 -6 -21 -8 -17 -2 3 6 -5 9 -19 8 -17
-1 -29 -10 -37 -27 -10 -22 -14 -24 -25 -14 -14 15 -17 26 -5 24 20 -3 32 2
32 16 0 11 11 15 38 15 97 0 455 51 692 99 114 23 132 25 110 11z m-3205 -10
c3 -5 1 -10 -4 -10 -6 0 -11 5 -11 10 0 6 2 10 4 10 3 0 8 -4 11 -10z m3295 0
c0 -5 -5 -10 -11 -10 -5 0 -7 5 -4 10 3 6 8 10 11 10 2 0 4 -4 4 -10z m-33 -6
c-3 -3 -12 -4 -19 -1 -8 3 -5 6 6 6 11 1 17 -2 13 -5z m-3394 -21 c-7 -2 -19
-2 -25 0 -7 3 -2 5 12 5 14 0 19 -2 13 -5z m-63 -42 c0 -10 -26 -9 -36 2 -4 4
2 7 14 7 12 0 22 -4 22 -9z m265 -11 c-3 -5 -13 -6 -21 -3 -12 4 -13 8 -3 14
15 9 32 2 24 -11z m55 0 c0 -4 -9 -6 -21 -3 -15 4 -17 8 -8 14 14 8 29 3 29
-11z m3036 5 c-3 -10 1 -15 12 -16 9 0 2 -5 -16 -10 -21 -6 -39 -6 -50 0 -15
9 -15 10 4 11 12 0 27 7 34 15 7 8 15 15 17 15 3 0 3 -7 -1 -15z m-3208 -7
c15 -15 16 -42 2 -33 -6 4 -8 11 -5 16 4 5 -1 9 -9 9 -9 0 -16 5 -16 10 0 14
13 13 28 -2z m-131 -30 c-3 -8 -6 -5 -6 6 -1 11 2 17 5 13 3 -3 4 -12 1 -19z
m3610 16 c-3 -3 -12 -4 -19 -1 -8 3 -5 6 6 6 11 1 17 -2 13 -5z m-3367 -8 c0
-3 -4 -8 -10 -11 -5 -3 -10 -1 -10 4 0 6 5 11 10 11 6 0 10 -2 10 -4z m3195
-6 c3 -5 1 -10 -4 -10 -6 0 -11 5 -11 10 0 6 2 10 4 10 3 0 8 -4 11 -10z
m-940 -11 c-22 -4 -69 -7 -105 -7 l-65 1 55 7 c30 4 78 7 105 7 l50 1 -40 -9z
m-2585 -13 c0 -2 -7 -6 -15 -10 -8 -3 -15 -1 -15 4 0 6 7 10 15 10 8 0 15 -2
15 -4z m1614 -4 c3 -5 -13 -8 -35 -7 -22 1 -42 -2 -45 -7 -3 -4 3 -8 12 -8 10
0 14 -3 11 -7 -10 -10 -88 -13 -82 -3 3 4 -1 11 -7 13 -7 3 3 4 22 1 19 -2 29
-2 23 2 -7 3 -13 10 -13 15 0 11 107 12 114 1z m765 4 c-7 -7 -149 -10 -156
-3 -3 4 31 7 77 7 46 0 81 -2 79 -4z m401 -6 c0 -5 -10 -10 -22 -9 -22 0 -22
1 -3 9 11 5 21 9 23 9 1 1 2 -3 2 -9z m787 -5 c0 -8 -4 -15 -9 -15 -4 0 -8 7
-8 15 0 8 4 15 8 15 5 0 9 -7 9 -15z m-1788 -16 c86 -1 116 2 123 12 7 11 11
11 15 2 3 -8 23 -13 49 -13 27 0 43 -4 39 -10 -3 -5 -20 -7 -38 -4 -31 5 -31
5 -12 -12 17 -14 17 -16 3 -11 -20 7 -25 -8 -5 -17 9 -3 7 -8 -5 -19 -14 -11
-15 -16 -5 -26 9 -10 8 -11 -5 -6 -22 9 -23 24 -3 31 8 4 12 10 9 15 -3 5 -10
7 -15 3 -6 -3 -7 4 -3 20 7 29 -1 32 -54 17 -20 -6 -30 -6 -27 0 11 17 -14 9
-25 -8 -9 -14 -10 -14 -7 -2 4 12 -2 16 -26 16 -80 0 -180 6 -159 10 12 2 22
10 22 16 0 9 2 9 8 0 5 -8 45 -13 121 -14z m84 14 c-18 -2 -48 -2 -65 0 -18 2
-4 4 32 4 36 0 50 -2 33 -4z m197 -3 c-19 -4 -27 -8 -17 -9 9 0 17 -5 17 -10
0 -5 -9 -7 -20 -4 -11 3 -20 9 -20 14 0 4 -21 10 -47 12 -27 2 -10 4 37 4 60
0 75 -2 50 -7z m73 3 c-7 -2 -19 -2 -25 0 -7 3 -2 5 12 5 14 0 19 -2 13 -5z
m385 -1 c8 8 15 7 25 -3 11 -12 12 -17 1 -27 -18 -16 -25 -15 -17 3 4 13 -1
15 -26 10 -34 -6 -55 1 -46 15 3 6 15 6 29 0 15 -5 27 -5 34 2z m62 -9 c0 -10
-4 -14 -8 -8 -4 6 -11 13 -16 18 -5 4 -2 7 7 7 10 0 17 -8 17 -17z m1155 7 c3
-5 -1 -10 -10 -10 -9 0 -13 5 -10 10 3 6 8 10 10 10 2 0 7 -4 10 -10z m-3625
-10 c0 -5 -5 -10 -11 -10 -5 0 -7 5 -4 10 3 6 8 10 11 10 2 0 4 -4 4 -10z m34
2 c3 -5 -1 -9 -9 -9 -8 0 -12 4 -9 9 3 4 7 8 9 8 2 0 6 -4 9 -8z m36 -2 c0 -5
-2 -10 -4 -10 -3 0 -8 5 -11 10 -3 6 -1 10 4 10 6 0 11 -4 11 -10z m54 1 c3
-5 -5 -8 -19 -7 -14 0 -25 4 -25 9 0 10 38 9 44 -2z m1363 -7 c-3 -3 -12 -4
-19 -1 -8 3 -5 6 6 6 11 1 17 -2 13 -5z m603 -5 c0 -9 -16 -13 -35 -9 -5 1
-23 3 -40 4 -24 1 -29 -3 -27 -18 3 -15 1 -16 -11 -5 -9 8 -11 16 -5 18 6 2 5
7 -3 12 -8 4 15 8 54 8 37 0 67 -4 67 -10z m666 -2 c11 -11 -19 -8 -36 3 -12
8 -10 9 7 7 12 -2 26 -6 29 -10z m-1409 -3 c-3 -3 -12 -4 -19 -1 -8 3 -5 6 6
6 11 1 17 -2 13 -5z m2143 0 c0 -8 -19 -13 -24 -6 -3 5 1 9 9 9 8 0 15 -2 15
-3z m145 -4 c3 -6 -1 -7 -9 -4 -18 7 -21 14 -7 14 6 0 13 -4 16 -10z m-3552
-7 c-7 -2 -19 -2 -25 0 -7 3 -2 5 12 5 14 0 19 -2 13 -5z m1463 0 c-9 -10 -35
-13 -40 -4 -3 4 7 8 21 9 15 1 23 -1 19 -5z m44 3 c0 -3 -4 -8 -10 -11 -5 -3
-10 -1 -10 4 0 6 5 11 10 11 6 0 10 -2 10 -4z m-337 -12 c-7 -3 -11 -11 -9
-17 1 -7 1 -9 -1 -4 -3 4 -9 7 -14 7 -6 0 -8 -4 -5 -9 6 -9 -54 -5 -63 5 -3 4
3 5 15 2 12 -3 32 1 45 8 13 7 29 13 34 13 6 0 5 -3 -2 -5z m802 -5 c-3 -4 2
-10 11 -13 12 -4 15 -2 10 9 -3 8 -1 15 3 15 20 0 19 -29 -2 -36 -12 -4 -23
-2 -25 4 -1 5 -12 8 -23 5 -15 -4 -17 -8 -7 -17 7 -6 11 -10 9 -8 -2 1 -13 -5
-23 -15 -10 -9 -18 -11 -18 -5 0 6 6 13 13 15 9 4 9 8 -2 16 -12 8 -10 11 12
16 15 4 25 10 22 14 -2 4 2 8 10 8 8 0 12 -4 10 -8z m75 1 c0 -5 -2 -10 -4
-10 -3 0 -8 5 -11 10 -3 6 -1 10 4 10 6 0 11 -4 11 -10z m-985 -19 c-3 -6 -11
-11 -16 -11 -5 0 -4 6 3 14 14 16 24 13 13 -3z m2388 12 c-7 -2 -19 -2 -25 0
-7 3 -2 5 12 5 14 0 19 -2 13 -5z m-3498 -21 c-3 -3 -11 0 -18 7 -9 10 -8 11
6 5 10 -3 15 -9 12 -12z m1895 -13 c0 -10 -7 -19 -15 -19 -8 0 -15 -5 -15 -12
0 -6 -3 -8 -7 -4 -5 4 0 14 11 21 11 9 16 20 12 30 -3 9 -2 13 4 10 6 -3 10
-15 10 -26z m667 25 c-3 -3 -12 -4 -19 -1 -8 3 -5 6 6 6 11 1 17 -2 13 -5z
m-1262 -24 c-5 -15 -3 -18 9 -14 9 3 16 2 16 -2 0 -5 -15 -9 -34 -10 l-33 -1
21 23 c26 28 29 29 21 4z m148 0 c-4 -16 -2 -19 13 -14 15 5 16 4 4 -4 -21
-15 -45 5 -29 24 16 19 18 18 12 -6z m-41 3 c-6 -2 -10 -9 -7 -14 4 -5 -1 -6
-10 -2 -13 5 -14 7 -3 14 7 5 18 8 23 8 6 0 4 -3 -3 -6z m1175 1 c-3 -3 -12
-4 -19 -1 -8 3 -5 6 6 6 11 1 17 -2 13 -5z m-1492 -14 c3 -5 1 -10 -4 -10 -6
0 -11 5 -11 10 0 6 2 10 4 10 3 0 8 -4 11 -10z m55 -6 c0 -2 -7 -4 -15 -4 -8
0 -15 4 -15 10 0 5 7 7 15 4 8 -4 15 -8 15 -10z m53 4 c-6 -11 -43 -10 -43 1
0 5 11 8 24 7 13 0 22 -4 19 -8z m43 -6 c1 -7 0 -8 -3 -2 -2 5 -9 8 -14 4 -5
-3 -9 0 -9 6 0 15 23 7 26 -8z m356 11 c-6 -2 -9 -10 -6 -15 4 -7 2 -8 -5 -4
-13 9 -5 26 12 25 9 0 8 -2 -1 -6z m93 -11 c-3 -3 -11 0 -18 7 -9 10 -8 11 6
5 10 -3 15 -9 12 -12z m149 10 c3 -5 -1 -9 -9 -9 -8 0 -15 4 -15 9 0 4 4 8 9
8 6 0 12 -4 15 -8z m203 2 c-3 -3 -12 -4 -19 -1 -8 3 -5 6 6 6 11 1 17 -2 13
-5z m-2217 -14 c18 -12 2 -12 -25 0 -13 6 -15 9 -5 9 8 0 22 -4 30 -9z m1557
-6 c-3 -3 -12 -4 -19 -1 -8 3 -5 6 6 6 11 1 17 -2 13 -5z m280 0 c-3 -3 -12
-4 -19 -1 -8 3 -5 6 6 6 11 1 17 -2 13 -5z m-1742 -24 c28 -10 43 -18 35 -18
-8 0 -37 8 -65 18 -27 10 -43 18 -35 18 8 0 38 -8 65 -18z m3710 10 c-27 -12
-43 -12 -25 0 8 5 22 9 30 9 10 0 8 -3 -5 -9z m-48 -16 c-3 -3 -12 -4 -19 -1
-8 3 -5 6 6 6 11 1 17 -2 13 -5z m7283 -389 c0 -33 53 -144 100 -207 75 -102
196 -188 315 -223 22 -7 40 -18 40 -24 0 -7 -31 -25 -70 -40 -91 -35 -147 -71
-213 -135 -72 -69 -110 -126 -149 -221 -18 -44 -37 -80 -43 -80 -6 0 -22 31
-35 69 -43 123 -126 229 -234 299 -68 45 -158 87 -185 87 -9 0 -16 8 -16 18 0
12 18 24 63 40 170 61 329 225 378 390 8 30 18 42 31 42 10 0 18 -7 18 -15z"/>
<path d="M11910 17160 c0 -5 5 -10 11 -10 5 0 7 5 4 10 -3 6 -8 10 -11 10 -2
0 -4 -4 -4 -10z"/>
<path d="M10838 15764 c-2 -2 -30 -4 -62 -5 -34 -1 -52 -5 -44 -10 7 -5 26 -6
41 -3 26 4 27 3 17 -16 -13 -24 -6 -40 18 -41 9 0 12 -3 5 -5 -6 -3 -25 2 -42
11 -33 17 -40 12 -17 -11 8 -8 32 -14 54 -14 21 0 42 -3 45 -7 10 -9 57 -10
57 -1 0 4 5 8 11 8 5 0 8 -3 6 -7 -3 -5 20 -6 50 -4 31 1 51 6 44 10 -6 4 -29
6 -50 4 -28 -2 -43 3 -56 17 -10 11 -22 17 -26 14 -5 -3 -17 0 -26 5 -17 10
-16 10 2 11 17 0 17 2 5 10 -22 14 -27 12 -33 -10 -4 -15 1 -22 21 -27 15 -4
33 -6 40 -5 6 2 12 -2 12 -9 0 -10 -13 -10 -60 2 -8 2 -17 7 -20 10 -3 3 -14
11 -25 18 -19 11 -19 12 3 6 13 -4 22 -2 22 4 0 6 -4 11 -10 11 -5 0 -10 4
-10 10 0 5 16 8 35 6 19 -1 35 1 35 5 0 7 -37 19 -42 13z"/>
<path d="M9773 15745 c0 -6 6 -12 13 -12 7 0 11 4 8 9 -3 4 0 8 5 8 6 0 11 -5
11 -11 0 -8 4 -8 13 -1 7 6 23 9 35 5 12 -3 22 -1 22 4 0 5 -24 10 -53 10 -34
0 -54 -5 -54 -12z"/>
<path d="M9901 15750 c-9 -5 -4 -9 13 -12 14 -3 26 -2 26 2 0 12 -26 19 -39
10z"/>
<path d="M10890 15730 c0 -5 5 -10 11 -10 5 0 7 5 4 10 -3 6 -8 10 -11 10 -2
0 -4 -4 -4 -10z"/>
<path d="M10748 15723 c7 -3 16 -2 19 1 4 3 -2 6 -13 5 -11 0 -14 -3 -6 -6z"/>
<path d="M10950 15700 c8 -5 22 -9 30 -9 10 0 8 3 -5 9 -27 12 -43 12 -25 0z"/>
<path d="M11007 15699 c7 -7 15 -10 18 -7 3 3 -2 9 -12 12 -14 6 -15 5 -6 -5z"/>
<path d="M11050 15702 c0 -15 28 -23 36 -9 4 7 4 9 -1 5 -4 -4 -14 -3 -22 3
-8 7 -13 8 -13 1z"/>
<path d="M10190 15666 c0 -8 5 -18 10 -21 6 -4 8 -9 6 -13 -2 -4 12 -8 32 -9
l37 -1 -32 9 c-18 5 -33 12 -33 15 0 3 8 3 18 0 9 -2 33 -7 52 -11 35 -7 35
-7 12 10 -12 9 -38 17 -56 18 -19 1 -32 5 -29 10 2 4 -1 7 -6 7 -6 0 -11 -6
-11 -14z"/>
<path d="M10284 15665 c8 -8 17 -15 20 -15 3 0 3 7 0 15 -4 8 -13 15 -21 15
-12 0 -12 -2 1 -15z"/>
<path d="M10788 15653 c7 -3 16 -2 19 1 4 3 -2 6 -13 5 -11 0 -14 -3 -6 -6z"/>
<path d="M10828 15653 c7 -3 16 -2 19 1 4 3 -2 6 -13 5 -11 0 -14 -3 -6 -6z"/>
<path d="M10595 15640 c-14 -6 -10 -8 17 -6 20 1 39 4 42 6 8 8 -38 8 -59 0z"/>
<path d="M10372 15605 c-11 -13 -9 -15 12 -13 15 1 22 7 19 15 -7 17 -15 16
-31 -2z"/>
<path d="M7450 14921 c0 -8 -6 -11 -17 -7 -10 4 -14 4 -11 0 4 -3 1 -19 -7
-34 -14 -27 -11 -40 7 -40 5 0 7 9 3 20 -5 15 -3 18 8 14 8 -3 18 -1 22 5 4 7
-1 8 -12 4 -17 -6 -17 -5 1 15 11 12 16 25 13 29 -4 3 -7 1 -7 -6z"/>
<path d="M7360 14845 c23 -30 58 -65 66 -65 4 0 -1 10 -12 22 -17 19 -17 21
-1 15 9 -4 17 -2 17 2 0 5 -7 11 -15 15 -8 3 -15 1 -15 -5 0 -6 -5 -7 -10 -4
-6 4 -7 12 -4 18 4 7 4 9 -1 5 -4 -4 -15 -2 -24 5 -14 11 -15 10 -1 -8z"/>
<path d="M7572 14844 c-7 -8 -8 -14 -3 -14 10 0 25 19 20 25 -2 1 -10 -3 -17
-11z"/>
<path d="M14150 13269 c0 -5 5 -7 10 -4 6 3 10 8 10 11 0 2 -4 4 -10 4 -5 0
-10 -5 -10 -11z"/>
<path d="M14170 13128 c0 -4 4 -8 9 -8 6 0 12 4 15 8 3 5 -1 9 -9 9 -8 0 -15
-4 -15 -9z"/>
<path d="M14585 11899 c-5 -8 -4 -10 3 -5 8 5 12 -2 13 -21 2 -25 2 -26 6 -4
5 27 -11 49 -22 30z"/>
<path d="M6191 13194 c0 -11 3 -14 6 -6 3 7 2 16 -1 19 -3 4 -6 -2 -5 -13z"/>
<path d="M6356 13195 c-9 -26 -7 -32 5 -12 6 10 9 21 6 23 -2 3 -7 -2 -11 -11z"/>
<path d="M6166 13124 c-8 -20 -8 -24 2 -24 4 0 8 9 9 20 2 24 -3 26 -11 4z"/>
<path d="M6150 13079 c0 -5 5 -7 10 -4 6 3 10 8 10 11 0 2 -4 4 -10 4 -5 0
-10 -5 -10 -11z"/>
<path d="M6118 12983 c-22 -77 -15 -79 10 -4 11 34 18 61 14 61 -4 0 -15 -26
-24 -57z"/>
<path d="M5960 12360 c0 -11 2 -20 4 -20 2 0 6 9 9 20 3 11 1 20 -4 20 -5 0
-9 -9 -9 -20z"/>
<path d="M5952 12300 c0 -14 2 -19 5 -12 2 6 2 18 0 25 -3 6 -5 1 -5 -13z"/>
<path d="M8553 10973 c4 -6 18 -14 32 -17 44 -11 256 -96 340 -136 44 -21 129
-70 189 -109 60 -39 115 -71 122 -71 7 0 14 -5 16 -11 2 -7 10 -10 17 -8 20 7
-52 97 -123 153 -75 60 -231 136 -350 170 -98 28 -254 46 -243 29z"/>
<path d="M11805 10964 c-167 -30 -325 -98 -435 -187 -65 -53 -140 -141 -140
-165 0 -7 48 20 108 61 188 130 320 195 537 265 44 14 84 29 90 34 14 12 -70
8 -160 -8z"/>
<path d="M10805 8650 c-196 -125 -519 -200 -867 -200 -54 0 -98 -4 -98 -9 0
-23 128 -56 276 -72 272 -30 597 57 719 193 46 51 62 86 51 113 -7 20 -12 19
-81 -25z"/>
<path d="M13636 8443 c-6 -14 -5 -15 5 -6 7 7 10 15 7 18 -3 3 -9 -2 -12 -12z"/>
<path d="M13656 8434 c-4 -9 -4 -19 -1 -22 2 -3 7 3 11 12 4 9 4 19 1 22 -2 3
-7 -3 -11 -12z"/>
<path d="M13355 7869 c-4 -6 -5 -12 -2 -15 2 -3 7 2 10 11 7 17 1 20 -8 4z"/>
<path d="M13333 7829 c-2 -23 3 -25 10 -4 4 8 3 16 -1 19 -4 3 -9 -4 -9 -15z"/>
<path d="M5650 9870 c0 -5 5 -10 11 -10 5 0 7 5 4 10 -3 6 -8 10 -11 10 -2 0
-4 -4 -4 -10z"/>
<path d="M5569 9753 c-1 -10 -1 -21 0 -25 0 -5 -3 -8 -7 -8 -5 0 -9 -6 -9 -12
0 -7 -5 -32 -11 -55 -6 -25 -6 -43 -1 -43 5 0 9 5 9 11 0 5 4 8 8 5 5 -3 8 12
9 32 0 20 3 54 7 75 4 20 5 37 2 37 -3 0 -7 -8 -7 -17z"/>
<path d="M5543 8470 c0 -30 2 -43 4 -27 2 15 2 39 0 55 -2 15 -4 2 -4 -28z"/>
<path d="M5495 8500 c-3 -5 -1 -10 4 -10 6 0 11 5 11 10 0 6 -2 10 -4 10 -3 0
-8 -4 -11 -10z"/>
<path d="M5473 8465 c1 -11 6 -23 10 -26 5 -3 9 -20 9 -38 1 -17 4 -34 8 -36
4 -2 5 6 4 18 -1 12 -3 31 -3 43 -1 11 -7 29 -15 40 -14 19 -14 19 -13 -1z"/>
<path d="M11770 9731 c0 -5 11 -8 24 -7 13 0 22 4 19 9 -6 10 -43 9 -43 -2z"/>
<path d="M11830 9729 c0 -5 5 -7 10 -4 6 3 10 8 10 11 0 2 -4 4 -10 4 -5 0
-10 -5 -10 -11z"/>
<path d="M11610 9609 c0 -5 5 -7 10 -4 6 3 10 8 10 11 0 2 -4 4 -10 4 -5 0
-10 -5 -10 -11z"/>
<path d="M11645 9610 c4 -6 11 -8 16 -5 14 9 11 15 -7 15 -8 0 -12 -5 -9 -10z"/>
<path d="M11590 9580 c0 -5 5 -10 11 -10 5 0 7 5 4 10 -3 6 -8 10 -11 10 -2 0
-4 -4 -4 -10z"/>
<path d="M11630 9575 c0 -8 -5 -15 -10 -15 -7 0 -6 -5 2 -13 15 -17 41 2 27
19 -5 6 -6 14 -2 17 3 4 1 7 -5 7 -7 0 -12 -7 -12 -15z"/>
<path d="M8295 9511 c-2 -5 6 -13 19 -19 17 -8 23 -7 23 3 0 15 -34 28 -42 16z"/>
<path d="M8380 9499 c0 -5 5 -7 10 -4 6 3 10 8 10 11 0 2 -4 4 -10 4 -5 0 -10
-5 -10 -11z"/>
<path d="M8355 9480 c-6 -9 8 -14 28 -11 4 0 7 -3 7 -9 0 -5 5 -10 11 -10 6 0
9 5 7 12 -6 16 -46 29 -53 18z"/>
<path d="M12128 9513 c7 -3 16 -2 19 1 4 3 -2 6 -13 5 -11 0 -14 -3 -6 -6z"/>
<path d="M12590 4679 c0 -5 -5 -7 -12 -3 -7 4 -8 3 -4 -4 4 -6 13 -9 21 -6 8
4 12 10 9 15 -7 12 -14 11 -14 -2z"/>
<path d="M12213 4443 c0 -18 1 -32 2 -30 0 1 9 16 20 32 14 23 15 27 3 17 -13
-10 -17 -10 -20 0 -3 7 -5 -2 -5 -19z"/>
<path d="M12161 4414 c-11 -13 -15 -14 -22 -2 -7 10 -9 9 -9 -4 0 -9 6 -19 13
-21 9 -4 8 -8 -3 -16 -13 -9 -13 -11 3 -11 9 0 17 6 17 13 1 7 6 5 14 -5 12
-16 14 -16 23 5 7 15 7 29 1 40 -11 21 -19 21 -37 1z m32 -31 c-4 -11 -9 -11
-22 -1 -26 20 -27 22 -8 15 12 -5 17 -1 17 11 0 14 2 14 9 3 5 -8 7 -20 4 -28z"/>
<path d="M8326 4447 c3 -10 9 -15 12 -12 3 3 0 11 -7 18 -10 9 -11 8 -5 -6z"/>
<path d="M12426 3565 c-3 -9 0 -15 8 -15 7 0 13 7 13 15 0 8 -4 15 -8 15 -4 0
-9 -7 -13 -15z"/>
<path d="M12370 3436 c0 -2 7 -7 16 -10 8 -3 12 -2 9 4 -6 10 -25 14 -25 6z"/>
<path d="M8090 3666 c0 -2 7 -7 16 -10 8 -3 12 -2 9 4 -6 10 -25 14 -25 6z"/>
<path d="M8135 3640 c3 -5 8 -10 11 -10 2 0 4 5 4 10 0 6 -5 10 -11 10 -5 0
-7 -4 -4 -10z"/>
<path d="M7990 3590 c0 -6 7 -10 15 -10 8 0 15 2 15 4 0 2 -7 6 -15 10 -8 3
-15 1 -15 -4z"/>
<path d="M12055 3091 c-3 -5 -2 -12 3 -15 5 -3 9 1 9 9 0 17 -3 19 -12 6z"/>
<path d="M8230 2390 c0 -5 7 -7 15 -4 8 4 15 8 15 10 0 2 -7 4 -15 4 -8 0 -15
-4 -15 -10z"/>
<path d="M8258 2373 c7 -3 16 -2 19 1 4 3 -2 6 -13 5 -11 0 -14 -3 -6 -6z"/>
<path d="M8458 2313 c7 -3 16 -2 19 1 4 3 -2 6 -13 5 -11 0 -14 -3 -6 -6z"/>
<path d="M8366 2232 c-3 -5 1 -9 9 -9 8 0 12 4 9 9 -3 4 -7 8 -9 8 -2 0 -6 -4
-9 -8z"/>
<path d="M8320 2210 c0 -5 5 -10 11 -10 5 0 7 5 4 10 -3 6 -8 10 -11 10 -2 0
-4 -4 -4 -10z"/>
<path d="M8358 2203 c7 -3 16 -2 19 1 4 3 -2 6 -13 5 -11 0 -14 -3 -6 -6z"/>
<path d="M8358 2163 c7 -3 16 -2 19 1 4 3 -2 6 -13 5 -11 0 -14 -3 -6 -6z"/>
<path d="M8235 2090 c-8 -13 15 -24 27 -12 6 6 4 11 -6 15 -8 3 -18 2 -21 -3z"/>
<path d="M12257 2265 c3 -8 9 -12 14 -9 12 7 11 11 -5 17 -10 4 -13 1 -9 -8z"/>
<path d="M12268 2233 c7 -3 16 -2 19 1 4 3 -2 6 -13 5 -11 0 -14 -3 -6 -6z"/>
<path d="M12205 2179 c-4 -6 -5 -12 -2 -15 2 -3 7 2 10 11 7 17 1 20 -8 4z"/>
<path d="M12170 2095 c0 -16 16 -20 24 -6 3 5 -1 11 -9 15 -9 3 -15 0 -15 -9z"/>
<path d="M11732 2239 c-19 -7 -23 -29 -6 -29 3 0 2 5 -2 12 -5 8 0 9 14 6 15
-4 22 -2 22 8 0 8 -1 14 -2 13 -2 0 -13 -4 -26 -10z"/>
<path d="M8850 2236 c0 -9 30 -14 35 -6 4 6 -3 10 -14 10 -12 0 -21 -2 -21 -4z"/>
<path d="M8900 2220 c-9 -6 -10 -10 -3 -10 6 0 15 5 18 10 8 12 4 12 -15 0z"/>
<path d="M8960 2210 c13 -9 13 -10 0 -11 -8 -1 -27 0 -42 1 -14 1 -29 -4 -33
-10 -3 -5 -11 -7 -17 -4 -6 4 -5 10 3 15 11 7 10 9 -4 9 -13 0 -18 -6 -15 -22
2 -16 9 -22 21 -20 9 2 17 -3 17 -10 1 -7 9 -3 19 10 11 12 22 22 26 22 4 0 2
-7 -5 -15 -7 -9 -8 -15 -2 -15 5 0 13 7 16 16 3 8 9 13 13 11 5 -2 16 4 26 15
16 17 16 18 -10 18 -22 0 -25 -2 -13 -10z"/>
<path d="M11586 2207 c3 -10 9 -15 12 -12 3 3 0 11 -7 18 -10 9 -11 8 -5 -6z"/>
<path d="M9020 2200 c-13 -8 -12 -10 3 -10 9 0 17 5 17 10 0 12 -1 12 -20 0z"/>
<path d="M9170 2160 c0 -5 5 -10 11 -10 5 0 7 5 4 10 -3 6 -8 10 -11 10 -2 0
-4 -4 -4 -10z"/>
<path d="M9338 2153 c7 -3 16 -2 19 1 4 3 -2 6 -13 5 -11 0 -14 -3 -6 -6z"/>
<path d="M9380 2150 c8 -5 22 -9 30 -9 10 0 8 3 -5 9 -27 12 -43 12 -25 0z"/>
<path d="M11198 2153 c7 -3 16 -2 19 1 4 3 -2 6 -13 5 -11 0 -14 -3 -6 -6z"/>
<path d="M11339 2152 c9 -7 10 -11 2 -15 -7 -4 -8 -5 0 -3 15 2 13 20 -3 24
-10 3 -10 2 1 -6z"/>
<path d="M8845 2140 c-3 -6 1 -7 9 -4 18 7 21 14 7 14 -6 0 -13 -4 -16 -10z"/>
<path d="M8905 2140 c-3 -6 1 -7 9 -4 18 7 21 14 7 14 -6 0 -13 -4 -16 -10z"/>
<path d="M9086 2142 c-2 -4 4 -8 14 -8 10 0 16 4 14 8 -3 4 -9 8 -14 8 -5 0
-11 -4 -14 -8z"/>
<path d="M9258 2133 c7 -3 16 -2 19 1 4 3 -2 6 -13 5 -11 0 -14 -3 -6 -6z"/>
<path d="M9310 2132 c0 -13 56 -21 72 -10 9 5 4 8 -14 8 -14 0 -33 3 -42 6 -9
3 -16 2 -16 -4z"/>
<path d="M9710 2115 c0 -8 5 -15 10 -15 6 0 10 5 10 10 0 6 4 10 10 10 5 0 8
-6 6 -12 -1 -7 -1 -10 1 -5 3 4 11 7 19 7 31 0 12 17 -21 18 -25 1 -35 -3 -35
-13z"/>
<path d="M8745 2110 c-3 -5 -2 -10 4 -10 5 0 13 5 16 10 3 6 2 10 -4 10 -5 0
-13 -4 -16 -10z"/>
<path d="M9258 2103 c7 -3 16 -2 19 1 4 3 -2 6 -13 5 -11 0 -14 -3 -6 -6z"/>
<path d="M9325 2100 c27 -12 35 -12 35 0 0 6 -12 10 -27 9 -25 0 -26 -1 -8 -9z"/>
<path d="M9530 2101 c0 -12 39 -25 47 -17 4 3 -1 6 -11 6 -9 0 -14 5 -11 10 3
6 -1 10 -9 10 -9 0 -16 -4 -16 -9z"/>
<path d="M11688 2103 c7 -3 16 -2 19 1 4 3 -2 6 -13 5 -11 0 -14 -3 -6 -6z"/>
<path d="M8788 2093 c7 -3 16 -2 19 1 4 3 -2 6 -13 5 -11 0 -14 -3 -6 -6z"/>
<path d="M8870 2086 c7 -7 13 -7 20 0 6 6 3 10 -10 10 -13 0 -16 -4 -10 -10z"/>
<path d="M11870 2080 c0 -5 5 -10 10 -10 6 0 10 5 10 10 0 6 -4 10 -10 10 -5
0 -10 -4 -10 -10z"/>
<path d="M9338 2073 c12 -2 30 -2 40 0 9 3 -1 5 -23 4 -22 0 -30 -2 -17 -4z"/>
<path d="M11480 2070 c0 -6 7 -10 15 -10 8 0 15 2 15 4 0 2 -7 6 -15 10 -8 3
-15 1 -15 -4z"/>
<path d="M11413 2053 c9 -2 23 -2 30 0 6 3 -1 5 -18 5 -16 0 -22 -2 -12 -5z"/>
<path d="M9268 2038 c13 -16 102 -30 102 -16 0 5 -13 8 -30 8 -40 0 -42 0 -65
13 -17 9 -18 8 -7 -5z"/>
<path d="M10860 2040 c0 -5 5 -10 10 -10 6 0 10 5 10 10 0 6 -4 10 -10 10 -5
0 -10 -4 -10 -10z"/>
<path d="M10700 2028 c0 -4 4 -8 9 -8 6 0 12 4 15 8 3 5 -1 9 -9 9 -8 0 -15
-4 -15 -9z"/>
<path d="M11877 2029 c7 -7 15 -10 18 -7 3 3 -2 9 -12 12 -14 6 -15 5 -6 -5z"/>
<path d="M9380 2018 c0 -4 7 -8 15 -8 8 0 15 4 15 8 0 5 -7 9 -15 9 -8 0 -15
-4 -15 -9z"/>
<path d="M10600 2020 c0 -5 7 -7 15 -4 8 4 15 8 15 10 0 2 -7 4 -15 4 -8 0
-15 -4 -15 -10z"/>
<path d="M10848 2013 c7 -3 16 -2 19 1 4 3 -2 6 -13 5 -11 0 -14 -3 -6 -6z"/>
<path d="M10925 2010 c7 -12 32 -13 39 -2 2 4 -7 9 -20 10 -15 1 -22 -2 -19
-8z"/>
<path d="M10980 2010 c0 -5 7 -10 15 -10 8 0 15 5 15 10 0 6 -7 10 -15 10 -8
0 -15 -4 -15 -10z"/>
<path d="M11935 1970 c-3 -5 -1 -10 4 -10 6 0 11 5 11 10 0 6 -2 10 -4 10 -3
0 -8 -4 -11 -10z"/>
<path d="M11890 1930 c-13 -9 -13 -10 0 -10 8 0 22 5 30 10 13 9 13 10 0 10
-8 0 -22 -5 -30 -10z"/>
<path d="M11772 1905 c-7 -8 -9 -15 -4 -15 5 0 15 7 22 15 16 19 -1 19 -18 0z"/>
</g>
</svg>
