<?xml version="1.0" standalone="no"?>
<!DOCTYPE svg PUBLIC "-//W3C//DTD SVG 20010904//EN"
 "http://www.w3.org/TR/2001/REC-SVG-20010904/DTD/svg10.dtd">
<svg version="1.0" xmlns="http://www.w3.org/2000/svg"
 width="2752.000000pt" height="1536.000000pt" viewBox="0 0 2752.000000 1536.000000"
 preserveAspectRatio="xMidYMid meet">

<g transform="translate(0.000000,1536.000000) scale(0.100000,-0.100000)"
fill="#000000" stroke="none">
<path d="M0 7680 l0 -7680 13760 0 13760 0 0 7680 0 7680 -13760 0 -13760 0 0
-7680z m7435 4935 c202 -19 299 -36 503 -86 933 -230 1727 -782 2300 -1601
361 -516 575 -1073 673 -1753 30 -203 37 -645 15 -855 -48 -450 -155 -835
-354 -1268 -100 -216 -284 -524 -431 -717 -142 -188 -412 -475 -596 -635 -165
-144 -402 -309 -605 -422 -218 -122 -277 -149 -288 -135 -11 13 -72 134 -72
141 0 3 28 19 63 35 475 229 979 639 1305 1064 385 502 617 1002 742 1602 11
55 23 110 26 123 l4 22 -202 0 -203 0 -160 -106 c-88 -58 -168 -113 -178 -123
-10 -10 -34 -73 -53 -139 -40 -145 -111 -326 -193 -494 -68 -140 -150 -282
-158 -274 -3 2 -5 29 -4 59 0 46 9 71 55 158 111 210 192 410 240 594 l32 120
67 50 c37 28 130 90 206 138 l139 87 206 0 c157 0 208 3 211 13 2 6 6 36 10
65 l6 52 -335 0 -334 0 -5 33 c-2 17 -3 35 0 40 2 4 156 7 341 6 l337 0 5 93
c6 95 2 433 -5 456 -3 9 -80 12 -339 12 l-334 0 -6 25 c-4 14 -4 30 -1 35 4 6
139 10 339 10 l333 0 -4 53 c-3 28 -6 57 -8 64 -3 9 -61 13 -207 15 l-203 3
-192 123 c-105 68 -199 132 -208 142 -8 9 -29 64 -45 121 -106 370 -301 766
-498 1006 l-34 43 -56 -50 c-41 -37 -63 -49 -83 -48 -26 2 -26 3 29 65 30 34
73 75 95 90 l39 27 34 -39 c218 -257 463 -751 555 -1123 13 -52 13 -53 123
-124 61 -39 145 -93 187 -119 l75 -49 187 0 c170 0 187 2 187 17 0 48 -85 426
-121 539 -388 1218 -1324 2150 -2519 2508 -159 48 -402 98 -627 130 l-43 6 0
-340 0 -340 -35 0 -35 0 0 339 c0 261 -3 342 -12 348 -16 10 -585 9 -615 -1
l-23 -7 0 -349 0 -348 -35 0 -35 0 0 349 0 349 -27 -5 c-16 -3 -66 -11 -113
-19 -47 -8 -105 -18 -130 -21 -165 -23 -452 -101 -670 -182 -108 -40 -367
-161 -491 -229 -301 -165 -677 -461 -910 -717 -443 -486 -740 -1025 -894
-1623 -32 -125 -75 -344 -75 -385 0 -18 11 -19 185 -19 l184 0 174 114 c95 63
180 123 189 133 9 10 35 81 58 158 23 77 55 176 72 220 47 125 190 409 266
529 89 141 210 296 231 296 9 -1 47 -29 84 -64 50 -47 71 -73 77 -100 4 -20 4
-38 0 -41 -9 -6 -50 24 -108 79 l-44 41 -30 -35 c-58 -67 -197 -286 -262 -410
-108 -208 -201 -443 -242 -609 -11 -49 -27 -84 -43 -102 -14 -15 -111 -82
-216 -150 l-189 -124 -201 0 -200 0 -7 -45 c-3 -25 -7 -55 -7 -67 l-1 -23 333
0 c184 0 336 -2 339 -5 2 -3 3 -18 0 -35 l-4 -30 -338 0 -338 0 -6 -202 c-3
-112 -3 -239 1 -283 l8 -80 340 -1 c370 -1 341 3 337 -54 -2 -20 -9 -20 -338
-20 l-336 0 7 -57 c4 -32 9 -61 12 -65 2 -5 95 -8 205 -8 l201 0 101 -62 c195
-119 292 -187 303 -211 7 -14 25 -73 42 -131 42 -145 127 -350 223 -537 76
-149 79 -157 76 -215 l-3 -59 -46 75 c-121 196 -296 608 -334 787 -8 39 -58
84 -185 167 -188 123 -162 115 -367 122 -99 4 -187 4 -195 1 -13 -5 -13 -18 3
-103 158 -836 594 -1600 1231 -2161 212 -187 470 -361 743 -503 77 -40 142
-74 144 -76 5 -5 -70 -164 -78 -164 -9 0 -330 169 -411 218 -110 65 -375 262
-515 384 -327 284 -651 686 -863 1074 -158 289 -246 501 -332 797 -63 221 -84
312 -114 500 -39 242 -46 331 -46 586 0 444 59 819 194 1225 199 601 521 1122
965 1567 221 220 368 341 618 507 329 219 586 344 946 462 325 106 644 162
1047 184 118 7 433 -4 595 -19z m-2425 -17 c56 -38 73 -69 72 -133 0 -66 -32
-121 -86 -150 -41 -22 -138 -16 -167 11 -18 16 -22 15 -91 -31 -727 -480
-1253 -1101 -1598 -1885 -66 -150 -239 -669 -240 -718 0 -7 15 -26 34 -42 44
-39 60 -79 54 -140 -9 -87 -78 -150 -168 -150 -48 0 -84 17 -123 58 -72 76
-32 229 68 262 31 10 37 18 49 63 78 291 167 551 258 752 227 506 489 887 873
1271 279 279 415 391 733 601 72 48 82 58 82 84 0 59 48 140 95 159 42 18 121
11 155 -12z m4147 5 c48 -22 86 -83 86 -136 l0 -42 141 -92 c451 -294 885
-724 1183 -1168 196 -293 388 -680 505 -1015 81 -234 169 -597 154 -637 -4
-10 -18 -13 -48 -11 -41 3 -43 5 -51 43 -89 414 -186 709 -331 1011 -337 699
-802 1245 -1415 1659 -161 109 -187 123 -200 111 -26 -22 -90 -38 -127 -31
-40 7 -98 55 -121 98 -10 20 -14 46 -11 79 12 116 129 182 235 131z m-2156
-533 c13 7 19 7 19 0 0 -5 5 -10 11 -10 14 0 64 -52 61 -62 -1 -5 3 -7 10 -5
7 1 13 -8 14 -20 1 -12 5 -30 9 -40 4 -10 9 -23 11 -30 1 -7 9 -27 18 -44 9
-18 16 -38 16 -46 0 -7 5 -13 10 -13 6 0 10 -5 10 -11 0 -5 -4 -7 -10 -4 -5 3
-10 1 -10 -4 0 -6 5 -11 11 -11 5 0 8 -4 4 -9 -3 -5 0 -13 6 -16 5 -4 8 -13 5
-21 -3 -8 -1 -14 4 -14 6 0 10 -8 10 -18 0 -10 4 -22 10 -28 5 -5 11 -23 12
-39 1 -17 8 -36 15 -43 7 -7 13 -20 13 -28 0 -8 5 -14 10 -14 6 0 10 -9 10
-20 0 -11 5 -20 11 -20 6 0 9 -7 5 -15 -4 -11 2 -15 20 -15 14 0 23 -4 19 -10
-9 -14 4 -50 17 -50 6 0 5 7 -3 18 -13 15 -12 16 4 3 9 -7 17 -22 17 -33 0
-10 5 -16 10 -13 6 3 10 1 10 -5 0 -7 9 -9 23 -5 18 5 19 4 7 -5 -11 -9 -12
-13 -2 -17 6 -2 10 -8 7 -13 -3 -4 3 -7 13 -6 9 0 16 -4 15 -10 -1 -7 10 -10
29 -8 37 5 56 -5 37 -18 -11 -8 -10 -9 3 -5 26 9 71 -7 74 -27 1 -10 6 -21 10
-24 4 -4 4 1 1 10 -3 9 1 22 10 30 14 11 16 11 10 -4 -4 -13 -2 -15 10 -11 13
5 15 2 10 -13 -7 -19 -7 -19 8 0 13 17 15 17 15 3 0 -10 5 -14 15 -11 8 4 15
2 15 -4 0 -5 7 -13 16 -16 10 -4 13 -2 8 7 -4 6 3 3 16 -8 13 -11 20 -14 16
-7 -4 6 -2 12 3 12 6 0 11 -6 11 -14 0 -8 8 -13 18 -11 9 1 16 8 15 13 -2 6 4
9 12 6 8 -4 15 -10 15 -15 0 -5 12 -9 26 -9 16 0 23 -4 18 -11 -4 -7 0 -9 14
-5 14 5 25 1 35 -14 7 -11 16 -17 19 -14 4 3 15 1 27 -5 12 -6 30 -16 42 -22
16 -8 19 -8 13 2 -5 9 -2 10 12 5 10 -5 39 -15 64 -25 25 -9 47 -19 48 -23 2
-5 12 -8 23 -8 11 0 19 -7 19 -16 0 -8 5 -12 10 -9 6 3 10 1 10 -6 0 -6 8 -9
20 -6 11 3 18 2 15 -2 -2 -4 9 -18 25 -29 33 -25 44 -28 35 -9 -4 6 2 3 12 -9
10 -11 31 -24 46 -28 17 -4 27 -13 27 -25 0 -11 9 -21 21 -24 13 -4 18 -10 13
-18 -4 -7 -3 -10 4 -6 13 9 44 -2 37 -13 -3 -4 1 -8 8 -7 33 1 51 -4 41 -11
-9 -5 -8 -11 2 -20 8 -7 14 -8 14 -2 0 5 4 10 10 10 5 0 7 -6 4 -14 -3 -8 0
-17 7 -22 8 -4 10 -3 5 4 -4 7 -5 12 -1 12 11 0 50 -25 62 -40 10 -12 12 -12
13 -1 0 11 3 11 15 1 8 -7 13 -16 10 -19 -2 -4 2 -8 10 -8 8 0 16 10 16 21 3
55 18 -70 18 -155 1 -116 -18 -235 -57 -349 -32 -94 -88 -210 -101 -210 -4 0
-37 23 -72 52 -157 126 -418 272 -604 338 -279 98 -539 116 -796 53 -67 -16
-70 -16 -141 7 -102 31 -319 39 -475 16 -316 -46 -651 -197 -922 -415 -35 -28
-67 -51 -72 -51 -12 0 -73 134 -98 213 -26 86 -49 215 -52 292 -4 114 1 195
12 195 5 0 8 -4 5 -9 -4 -5 -3 -17 0 -26 5 -13 8 -14 15 -3 7 10 9 10 9 1 0
-7 7 -13 16 -13 8 0 12 5 9 10 -6 9 10 14 43 13 6 -1 12 5 12 13 0 8 10 14 25
14 19 0 23 4 18 17 -4 11 -3 14 5 9 8 -4 16 3 22 18 5 14 14 26 20 26 6 0 8
-6 4 -12 -5 -9 -2 -8 10 1 9 8 15 20 12 28 -3 8 2 13 14 13 10 0 22 5 25 11 4
6 13 8 20 5 7 -2 16 1 19 9 3 8 0 16 -7 18 -7 2 6 7 28 11 37 7 74 36 76 60 0
6 4 2 9 -9 7 -19 9 -18 19 8 6 15 14 27 18 26 18 -3 34 2 30 9 -3 4 2 13 10
21 13 12 14 11 9 -10 -6 -22 -6 -23 7 -6 8 9 19 17 24 17 6 0 23 6 38 14 23
12 24 15 8 19 -10 3 -5 5 14 6 30 1 83 42 83 64 0 5 7 7 15 3 8 -3 21 4 31 17
10 13 14 15 11 6 -4 -13 -1 -15 14 -12 10 3 19 9 19 13 0 5 8 7 18 5 9 -1 23
3 31 9 12 9 13 8 7 -4 -4 -8 -1 -7 7 3 8 10 28 19 45 20 16 1 28 5 26 8 -2 4
4 10 13 14 10 3 19 1 21 -5 3 -7 14 -2 30 12 14 13 22 17 18 11 -4 -7 -4 -13
-1 -13 11 0 34 27 30 34 -3 3 -2 4 2 1 3 -3 12 0 19 6 9 7 19 7 34 -1 18 -10
24 -8 36 7 7 10 14 13 14 6 0 -15 42 -8 55 10 6 7 22 12 38 11 15 -2 27 2 27
7 0 6 13 15 30 20 16 6 28 14 25 19 -3 4 5 10 16 13 15 4 20 11 15 22 -3 10
-2 14 5 10 6 -4 13 2 16 14 3 11 9 18 14 15 5 -3 9 -2 8 3 -4 21 2 33 18 33 9
0 13 3 10 6 -4 4 1 14 11 23 18 17 23 31 26 68 0 13 4 23 7 23 4 0 7 11 8 25
3 49 4 54 17 59 8 3 11 12 8 21 -4 10 0 15 11 15 9 0 14 4 10 10 -6 10 32 98
52 118 7 8 11 18 7 23 -3 6 -1 16 6 24 6 7 10 19 9 27 -2 7 3 40 10 72 9 41
16 55 22 45 7 -11 9 -11 9 -1 0 16 24 42 39 42 6 0 11 6 12 13 0 9 2 9 6 0 3
-9 10 -10 24 -3z m952 -284 c43 -18 66 -46 81 -98 13 -43 13 -43 127 -90 257
-107 528 -270 762 -457 125 -99 128 -103 111 -122 -9 -10 -21 -19 -27 -19 -5
0 -70 45 -145 101 -284 209 -511 345 -741 440 l-113 47 -36 -24 c-19 -13 -46
-24 -59 -24 -41 0 -92 28 -113 62 -46 75 -10 162 80 191 25 9 39 8 73 -7z
m-1779 -17 c14 -11 33 -34 41 -49 57 -111 -74 -226 -183 -160 -18 11 -37 20
-44 20 -24 0 -201 -76 -332 -143 -198 -101 -439 -262 -604 -403 -41 -36 -43
-36 -62 -19 -11 10 -20 23 -19 29 0 15 188 166 300 243 204 139 378 233 613
330 66 27 69 30 88 81 14 37 29 59 51 73 44 26 116 25 151 -2z m-230 -671 c-3
-4 -9 -8 -15 -8 -5 0 -9 4 -9 8 0 5 7 9 15 9 8 0 12 -4 9 -9z m-1191 -105 c62
-60 143 -138 181 -175 69 -68 86 -79 86 -56 0 6 3 9 6 5 8 -8 -38 -88 -48 -85
-5 2 -94 86 -199 187 l-190 184 22 23 c12 13 24 24 27 24 2 0 54 -48 115 -107z
m4641 50 c-5 -10 -89 -97 -187 -193 l-179 -174 -21 33 -21 34 40 35 c21 19
106 100 187 180 l148 145 21 -21 c16 -16 19 -26 12 -39z m-3524 23 c0 -3 -4
-8 -10 -11 -5 -3 -10 -1 -10 4 0 6 5 11 10 11 6 0 10 -2 10 -4z m-647 -281
c-28 -160 -1 -397 66 -588 l20 -58 -26 -40 c-14 -21 -29 -36 -33 -34 -13 8
-67 180 -84 265 -35 174 -31 296 16 450 17 56 45 106 54 97 2 -1 -4 -43 -13
-92z m3579 52 c18 -26 19 -29 3 -17 -17 14 -18 13 -11 -5 4 -11 19 -63 33
-115 34 -123 36 -270 6 -412 -19 -88 -68 -218 -81 -218 -4 0 -16 12 -28 28
-32 39 -38 23 -15 -38 l20 -53 -21 -31 c-56 -80 -229 -266 -249 -266 -3 0 -11
19 -16 43 l-11 42 -1 -46 c-1 -46 -2 -47 -63 -88 -35 -22 -78 -54 -95 -71 -37
-35 -41 -26 -22 43 9 32 27 50 123 121 125 92 194 169 277 307 113 189 164
483 126 736 -7 45 -9 79 -5 77 4 -3 17 -19 30 -37z m-3475 -49 c-3 -8 -6 -5
-6 6 -1 11 2 17 5 13 3 -3 4 -12 1 -19z m1483 -342 c52 -8 115 -23 140 -34 44
-18 44 -18 117 5 99 31 196 42 333 38 266 -8 533 -96 821 -271 85 -51 251
-173 263 -192 3 -5 -8 -25 -24 -44 l-29 -35 -74 71 c-159 153 -490 316 -757
373 -126 26 -353 24 -485 -5 -130 -28 -147 -29 -225 -6 -51 15 -96 19 -210 18
-158 -1 -251 -18 -450 -84 -181 -60 -474 -218 -609 -328 l-44 -36 -28 32 c-16
18 -29 36 -28 40 0 4 27 30 59 57 212 179 572 347 832 390 174 28 266 30 398
11z m-2013 -258 c-3 -8 -6 -5 -6 6 -1 11 2 17 5 13 3 -3 4 -12 1 -19z m-12
-85 c-28 -187 22 -490 110 -662 l24 -49 -43 -98 c-140 -318 -206 -642 -232
-1131 l-7 -133 -93 0 c-79 0 -94 3 -94 16 0 8 -4 12 -10 9 -5 -3 -10 1 -10 9
0 9 -4 16 -10 16 -5 0 -10 6 -10 14 0 8 -5 18 -12 22 -7 4 -8 3 -4 -4 12 -19
1 -14 -20 10 -10 12 -13 18 -6 14 7 -4 12 -1 12 8 0 9 -7 16 -15 16 -10 0 -14
8 -11 23 2 12 10 21 17 19 8 -1 3 7 -11 18 -16 12 -20 20 -10 20 10 0 11 3 2
12 -8 8 -8 17 -1 31 8 14 8 18 0 13 -7 -5 -11 2 -11 18 0 33 -2 38 -14 52 -8
9 -13 9 -18 0 -5 -7 -8 -5 -8 7 0 11 -20 27 -57 45 -32 15 -60 31 -61 35 -2 4
-10 3 -18 -4 -11 -9 -15 -8 -20 5 -4 11 -13 15 -25 11 -12 -4 -21 -1 -25 8 -3
9 -13 13 -25 10 -13 -4 -19 0 -19 10 0 14 -18 25 -42 28 -31 3 -147 42 -175
59 -20 11 -38 19 -40 16 -3 -3 -12 2 -20 10 -8 8 -19 12 -24 8 -5 -3 -8 0 -7
8 2 7 -3 12 -10 10 -8 -1 -11 2 -7 8 3 5 -2 10 -12 11 -12 0 -14 2 -4 6 10 4
10 7 2 13 -17 10 5 55 33 68 105 49 142 65 149 64 4 -1 7 3 7 9 0 6 7 9 15 5
8 -3 15 -2 15 3 0 5 11 7 25 5 17 -1 29 4 36 18 9 17 13 18 20 7 7 -11 9 -10
9 4 0 10 4 16 8 13 5 -3 19 6 31 20 18 21 25 23 37 14 11 -10 14 -9 14 4 0 9
8 16 20 16 11 0 20 4 20 10 0 5 7 7 16 3 9 -3 20 0 24 7 4 7 24 14 43 16 47 4
120 41 111 56 -5 8 -2 9 9 5 10 -3 17 -2 17 3 0 5 12 21 28 36 15 15 18 21 7
14 -17 -12 -16 -10 3 11 14 16 20 32 16 43 -4 11 -2 15 7 11 10 -4 14 3 14 24
0 16 -2 29 -5 29 -18 -1 -23 4 -11 11 13 8 13 12 0 27 -12 15 -12 17 0 9 11
-6 13 -4 8 8 -4 10 -2 17 4 17 7 0 9 10 5 25 -5 18 -2 25 8 25 10 0 12 7 8 22
-3 14 -2 19 6 14 7 -4 12 -1 12 8 0 9 6 16 13 17 8 0 8 2 -2 6 -11 5 -11 7 0
14 10 6 11 9 2 9 -7 0 -13 4 -13 10 0 5 7 7 15 4 18 -7 20 7 3 25 -11 11 -10
12 2 6 13 -8 13 -7 1 8 -12 15 -11 17 5 17 16 0 17 2 4 10 -10 6 -11 10 -2 10
6 0 12 7 12 15 0 8 4 15 10 15 5 0 7 7 4 15 -4 9 0 15 7 15 11 0 11 3 -1 10
-11 7 -11 10 -2 10 7 0 11 4 7 9 -3 5 0 13 6 17 8 4 7 9 -2 15 -11 7 -11 9 -1
9 7 0 10 5 7 10 -3 6 0 10 7 10 9 0 9 3 -2 10 -8 5 -11 10 -6 10 5 0 2 8 -5
17 -10 11 -10 14 -1 9 15 -9 16 6 1 21 -8 8 -6 11 7 10 12 -1 18 4 16 12 -2 8
2 17 8 21 7 4 14 29 16 56 6 62 10 74 26 74 9 0 8 -3 -2 -10 -12 -8 -11 -10 6
-10 15 0 20 6 19 22 -1 12 9 34 22 48 13 14 21 31 18 38 -3 7 0 10 5 7 5 -3
18 -1 27 5 16 10 16 11 -2 6 l-20 -6 20 15 c11 8 25 19 31 24 7 5 14 8 17 5 3
-3 4 1 4 8 -3 22 13 118 19 118 4 0 3 -21 -1 -47z m607 -102 c31 -47 82 -111
112 -141 44 -42 56 -61 56 -85 0 -60 -13 -60 -81 -2 -72 61 -119 115 -173 200
l-38 59 24 44 c20 38 24 42 33 28 6 -10 36 -56 67 -103z m3840 67 c2 -21 0
-38 -4 -38 -4 0 -8 21 -7 48 1 52 6 48 11 -10z m40 -113 c-2 -9 1 -15 5 -12 5
3 15 -8 22 -24 7 -16 17 -27 21 -24 5 3 18 -5 29 -17 23 -24 27 -38 11 -38
-15 0 -12 -16 5 -34 17 -16 20 -30 5 -21 -5 3 -7 0 -4 -8 3 -8 15 -20 27 -26
l22 -12 -22 5 c-13 2 -23 3 -23 1 0 -13 14 -35 22 -35 5 0 6 4 3 10 -4 6 2 7
17 1 31 -11 20 -27 -17 -24 -25 2 -27 1 -12 -8 9 -5 15 -14 12 -19 -3 -4 5 -6
17 -3 17 3 19 2 10 -5 -11 -7 -11 -10 2 -15 9 -4 16 -2 16 4 0 6 5 7 11 3 8
-5 8 -8 0 -13 -8 -5 -3 -17 14 -37 14 -16 24 -40 24 -54 -1 -14 2 -34 6 -45 6
-17 5 -18 -5 -5 -10 12 -11 12 -4 -5 4 -11 8 -32 9 -47 4 -46 5 -48 15 -48 5
0 7 8 4 18 -5 14 -3 14 10 -3 9 -11 14 -25 12 -32 -3 -7 -1 -13 4 -13 6 0 10
-6 10 -14 0 -7 9 -25 20 -39 17 -21 18 -26 5 -31 -8 -3 -15 -13 -15 -21 0 -10
5 -13 13 -9 9 6 9 4 1 -7 -6 -8 -9 -29 -7 -48 2 -26 0 -32 -12 -28 -9 4 -12 1
-9 -8 3 -8 12 -11 19 -9 7 3 16 0 21 -7 4 -8 3 -10 -4 -5 -7 4 -12 2 -12 -3 0
-6 5 -11 10 -11 6 0 15 -11 20 -25 5 -14 13 -25 18 -25 16 0 52 -37 44 -45 -4
-5 1 -5 10 -2 9 3 22 -1 28 -9 7 -8 9 -14 6 -14 -10 0 25 -35 36 -36 4 -1 13
-2 19 -3 5 0 8 -5 5 -9 -3 -5 5 -8 17 -7 12 1 27 -2 33 -7 7 -5 18 -7 25 -6 8
2 13 -2 12 -8 -1 -6 5 -11 13 -11 8 0 14 5 15 11 0 6 7 -2 14 -19 8 -16 14
-24 15 -17 0 9 8 8 28 -5 15 -10 30 -22 33 -27 4 -5 12 -5 19 -1 9 5 11 4 6
-3 -4 -7 -1 -12 8 -12 9 0 16 -6 17 -12 0 -10 2 -10 6 0 2 6 9 12 14 12 6 0 7
-5 3 -12 -5 -8 0 -9 15 -5 11 3 45 -4 74 -15 28 -11 66 -25 82 -32 17 -6 37
-16 45 -21 8 -5 20 -10 25 -10 6 0 10 -5 10 -11 0 -6 9 -19 19 -30 18 -17 18
-19 3 -22 -10 -2 -15 -8 -11 -13 3 -6 -5 -19 -18 -31 -12 -11 -22 -25 -20 -30
1 -5 -2 -7 -7 -4 -5 4 -16 0 -24 -8 -8 -8 -17 -12 -21 -9 -3 3 -8 -2 -12 -11
-3 -9 -10 -13 -15 -10 -5 3 -7 11 -3 17 3 7 0 5 -8 -3 -7 -8 -17 -15 -23 -16
-29 -2 -75 -18 -75 -25 0 -5 -7 -6 -15 -3 -8 4 -15 1 -15 -6 0 -7 -7 -10 -15
-7 -8 4 -17 2 -20 -4 -4 -5 -11 -7 -16 -4 -5 4 -9 2 -9 -3 0 -9 -26 -21 -55
-26 -5 -1 -9 -7 -8 -14 2 -7 -4 -9 -14 -5 -12 5 -14 3 -8 -7 5 -9 4 -11 -3 -6
-6 4 -21 2 -32 -4 -14 -8 -20 -8 -20 0 0 6 -5 8 -10 5 -6 -4 -8 -11 -5 -16 4
-5 -2 -10 -12 -11 -33 -2 -38 -3 -51 -12 -7 -4 -16 -6 -19 -3 -7 8 -43 -25
-37 -35 3 -4 -2 -5 -10 -2 -11 4 -16 0 -16 -15 0 -12 -6 -21 -14 -21 -8 0 -18
-4 -21 -10 -3 -6 1 -7 12 -4 14 4 14 3 -2 -8 -12 -7 -20 -23 -19 -36 1 -16 -2
-19 -10 -13 -7 6 -17 6 -26 1 -10 -6 -11 -10 -3 -10 7 0 10 -7 7 -15 -4 -9 0
-15 7 -15 11 0 11 -2 -1 -9 -8 -6 -18 -7 -24 -4 -5 4 -7 -3 -4 -15 5 -16 1
-22 -10 -23 -11 0 -12 -2 -4 -6 20 -8 14 -26 -8 -20 -22 6 -28 -8 -7 -16 6 -3
1 -6 -13 -7 -14 -1 -19 -4 -12 -7 6 -2 12 -9 12 -14 0 -6 -4 -8 -9 -4 -6 3
-15 -4 -21 -15 -6 -12 -7 -20 -1 -20 5 0 12 5 14 10 3 6 4 5 3 -2 -1 -7 -18
-16 -37 -21 l-34 -9 25 -14 c23 -12 19 -13 -52 -14 l-78 0 0 48 c0 109 -31
448 -55 592 -33 200 -91 413 -160 585 l-55 138 24 41 c59 102 98 260 111 453
7 98 8 101 29 93 12 -4 20 -15 18 -25z m113 -135 c3 -5 2 -10 -4 -10 -5 0 -13
5 -16 10 -3 6 -2 10 4 10 5 0 13 -4 16 -10z m-3733 -84 c84 -59 99 -76 105
-127 l6 -42 -32 19 c-72 43 -141 104 -141 127 0 12 -3 32 -6 45 -4 12 -4 22
-1 22 3 0 34 -20 69 -44z m2309 -233 c49 -52 119 -154 162 -238 39 -75 74
-176 54 -156 -16 16 -32 14 -18 -3 10 -12 8 -13 -8 -9 -12 3 -18 9 -16 13 3 5
-7 5 -22 1 -16 -5 -37 -5 -48 0 -39 15 -78 9 -105 -16 -14 -13 -30 -21 -36
-17 -13 8 -94 140 -94 152 0 4 16 11 36 15 54 10 81 25 93 52 20 45 13 100
-24 173 -40 80 -30 92 26 33z m-1656 -133 c10 -47 26 -101 37 -121 25 -45 94
-99 174 -136 52 -25 70 -28 162 -28 l103 0 -3 -80 -3 -80 -30 -2 c-102 -9
-155 -8 -195 2 -57 14 -128 1 -153 -28 -17 -19 -18 -33 -12 -132 l7 -110 -25
27 c-69 78 -126 365 -112 563 6 90 25 219 30 213 2 -2 11 -41 20 -88z m1111
-118 c40 -144 42 -258 7 -436 -5 -28 -6 -27 -35 25 -41 73 -95 128 -133 135
-18 3 -49 -1 -75 -11 -81 -30 -77 -31 -84 17 -4 24 -9 58 -12 76 l-6 32 53 0
c123 0 187 43 219 147 11 36 20 82 20 102 1 31 2 33 12 17 6 -11 21 -57 34
-104z m2164 83 c0 -5 -5 -3 -10 5 -5 8 -10 20 -10 25 0 6 5 3 10 -5 5 -8 10
-19 10 -25z m-3665 -77 c25 -7 45 -18 45 -25 0 -22 -36 -86 -63 -111 -23 -22
-27 -23 -54 -8 -53 27 -55 35 -28 117 37 109 36 108 47 71 7 -27 15 -34 53
-44z m3164 -85 c100 -253 159 -583 187 -1040 l7 -113 -31 0 c-35 0 -34 -1 -52
182 -13 129 -71 477 -101 603 -23 99 -77 266 -107 334 l-20 44 31 48 c18 26
35 48 38 48 4 1 25 -47 48 -106z m-4067 52 l35 -45 -23 -47 c-90 -191 -189
-631 -209 -938 -3 -49 -8 -109 -11 -133 -5 -42 -7 -43 -37 -40 l-32 3 3 135
c6 327 103 827 203 1048 15 34 30 62 32 62 2 0 20 -20 39 -45z m2790 -103 c23
-45 26 -56 16 -78 l-12 -26 -19 23 c-29 36 -65 112 -60 127 11 29 47 6 75 -46z
m-824 -62 c5 -36 9 -76 7 -90 -1 -14 -3 -59 -4 -100 -2 -70 -3 -73 -16 -50
-41 76 -62 262 -36 325 l13 30 13 -25 c7 -14 17 -54 23 -90z m-2998 -220 c0
-5 -2 -10 -4 -10 -3 0 -8 5 -11 10 -3 6 -1 10 4 10 6 0 11 -4 11 -10z m3708
-169 c81 -122 139 -196 212 -273 33 -34 60 -63 60 -64 0 -1 -21 -4 -46 -8 -68
-9 -252 -64 -307 -92 -60 -31 -118 -83 -143 -129 -17 -31 -17 -37 -4 -45 28
-18 57 -10 191 51 74 33 192 80 263 104 l130 43 77 -64 c74 -59 215 -148 304
-190 l40 -19 0 -62 c0 -74 -7 -77 -90 -39 -43 19 -47 24 -29 30 22 7 63 71 52
82 -4 3 -32 -6 -62 -21 -60 -30 -67 -30 -196 0 -110 25 -229 16 -345 -25 -175
-62 -233 -104 -299 -214 -37 -62 -53 -128 -41 -173 l7 -28 13 30 c7 17 28 45
47 62 l34 33 -4 -70 c-8 -130 55 -273 144 -330 99 -62 266 -64 342 -3 120 96
188 346 136 499 -8 25 -13 48 -10 51 9 9 92 -45 119 -77 34 -39 40 -74 28
-150 -22 -135 -119 -275 -233 -337 -47 -26 -45 -27 18 -12 25 6 50 20 57 29 7
10 28 22 47 27 31 8 35 13 32 37 -3 22 6 38 41 75 68 71 95 112 133 201 19 45
41 91 50 103 15 20 16 12 9 -113 -12 -260 -76 -699 -107 -745 -26 -38 -125
-122 -219 -187 -172 -118 -470 -233 -704 -273 -305 -51 -449 -54 -760 -15
-241 31 -395 76 -621 184 -153 74 -261 144 -350 229 l-65 62 -20 100 c-40 201
-85 634 -77 740 l4 50 15 -35 c48 -117 121 -249 154 -280 28 -25 36 -30 31
-15 -52 145 -69 272 -41 312 18 25 106 83 127 83 13 0 13 -6 2 -52 -31 -116
-13 -270 42 -379 52 -103 109 -144 216 -155 85 -8 161 8 223 50 41 27 57 48
90 111 39 76 40 82 40 177 l0 98 48 -53 47 -52 -6 70 c-8 85 -23 125 -70 182
-116 142 -400 226 -599 178 -77 -19 -130 -19 -191 0 -27 8 -53 15 -58 15 -11
0 20 -50 45 -71 18 -16 16 -18 -46 -43 -36 -14 -67 -26 -70 -26 -3 0 -5 33 -5
74 l0 74 61 63 c33 35 92 103 131 152 39 48 72 87 75 87 2 0 45 -12 96 -26
128 -35 241 -77 387 -144 138 -63 165 -73 197 -74 13 -1 62 -40 127 -103 75
-72 124 -111 171 -134 36 -17 68 -30 70 -27 6 6 -12 57 -59 168 l-37 85 32
-40 c147 -184 450 -405 579 -422 l42 -6 -15 29 c-25 50 -41 136 -41 224 -1 79
2 93 46 200 90 222 177 573 181 731 l2 76 21 -36 c11 -20 48 -78 82 -130z
m-1548 130 c0 -10 14 -65 31 -122 35 -120 106 -276 174 -380 32 -49 41 -69 28
-64 -125 52 -284 89 -433 100 -52 4 -96 8 -97 9 -2 1 35 58 81 127 81 119 196
319 196 339 0 6 5 10 10 10 6 0 10 -8 10 -19z m-1075 -618 c0 -507 15 -658 97
-998 20 -85 27 -130 20 -133 -6 -2 -9 -11 -6 -20 5 -15 4 -15 -6 1 -6 9 -15
17 -19 17 -8 0 -4 -42 6 -70 3 -8 7 -19 9 -25 12 -39 32 -85 48 -109 10 -16
13 -25 7 -22 -16 10 -13 -3 4 -20 12 -12 15 -12 15 -2 0 10 3 10 9 -2 6 -8 7
-18 4 -24 -4 -5 -1 -6 6 -1 8 4 10 17 6 34 -10 41 -1 24 52 -94 56 -126 188
-363 240 -433 60 -79 59 -79 -5 -11 -124 134 -249 309 -236 331 4 6 3 8 -3 5
-5 -3 -31 37 -56 91 -128 266 -211 600 -238 951 -15 197 -6 656 15 803 14 95
25 158 30 158 0 0 1 -192 1 -427z m3914 124 c32 -387 2 -854 -75 -1162 -26
-103 -103 -331 -140 -412 -46 -101 -145 -267 -190 -318 l-35 -40 35 51 c20 28
33 54 29 57 -3 4 -2 7 4 7 6 0 14 7 17 16 3 8 2 13 -3 10 -26 -17 -14 36 31
139 28 63 52 114 54 112 4 -4 -24 -84 -42 -119 -22 -42 -25 -65 -8 -65 8 0 12
2 9 5 -2 2 3 11 11 19 8 8 12 18 10 22 -3 4 4 14 15 21 10 8 19 20 19 27 0 7
4 13 8 13 9 0 21 26 74 160 23 59 30 96 34 170 5 105 4 104 -42 -33 -9 -27
-18 -46 -20 -44 -2 2 9 42 25 88 16 46 43 147 59 224 85 390 110 816 71 1184
-12 115 -12 150 1 131 8 -13 10 -12 11 5 3 38 27 -131 38 -268z m2282 -302
c102 -66 90 -219 -22 -280 -27 -14 -49 -33 -49 -40 0 -28 -110 -396 -146 -488
-122 -315 -295 -654 -448 -882 -280 -417 -631 -788 -1016 -1075 -193 -143
-405 -280 -462 -297 -28 -8 -69 -26 -90 -40 -38 -23 -41 -24 -59 -7 -30 27
-23 48 24 74 83 46 354 225 480 317 239 174 538 451 732 678 159 185 340 443
453 646 189 338 310 631 399 968 l35 135 -30 25 c-102 87 -73 240 55 287 47
17 97 10 144 -21z m-6386 -83 l40 -7 3 -82 3 -82 -58 29 c-71 35 -144 56 -167
47 -26 -10 -11 -24 67 -61 40 -18 91 -47 114 -64 36 -27 42 -37 48 -79 7 -59
44 -271 52 -297 17 -59 -227 198 -326 344 -71 104 -141 230 -141 255 0 17 10
18 163 11 89 -3 180 -9 202 -14z m4605 8 c33 -21 -120 -270 -268 -435 -117
-130 -182 -193 -182 -175 0 8 9 66 20 129 11 62 20 128 20 146 0 83 4 87 123
149 125 65 132 70 123 84 -10 17 -94 -8 -223 -65 -10 -4 -13 13 -13 66 0 67 2
72 25 81 66 25 344 40 375 20z m-6599 -105 c128 -661 486 -1370 965 -1915 308
-351 640 -620 1077 -874 54 -32 101 -64 104 -72 3 -8 -3 -24 -13 -35 -31 -35
-80 -20 -232 72 -341 205 -575 392 -882 705 -365 373 -673 839 -882 1339 -107
253 -248 725 -248 827 0 41 9 48 59 45 l35 -2 17 -90z m3143 -56 c48 -38 30
-101 -34 -120 -33 -10 -43 -9 -65 5 -40 26 -51 60 -31 91 31 47 88 57 130 24z
m1741 -24 c49 -48 17 -125 -52 -125 -74 0 -92 67 -32 123 36 33 53 34 84 2z
m1638 -312 c50 -202 61 -280 61 -438 1 -127 -3 -162 -22 -230 -26 -88 -70
-186 -103 -225 l-20 -25 13 25 c7 14 13 30 13 37 0 7 8 18 18 25 10 7 20 27
22 43 l5 30 -16 -25 c-8 -14 -13 -17 -10 -7 27 88 36 340 17 472 -6 39 -13 88
-16 110 l-5 40 11 -35 c10 -33 16 -63 18 -85 1 -5 6 -3 11 5 7 11 10 12 10 2
0 -7 7 -20 15 -28 13 -14 15 -13 16 8 1 13 1 27 -1 33 -1 5 -2 22 -2 37 -1 15
-5 28 -10 28 -4 0 -6 11 -4 25 3 14 1 25 -3 25 -13 0 -34 58 -25 71 5 9 1 11
-14 7 -16 -5 -22 -1 -23 10 -1 10 -5 -1 -8 -23 l-7 -40 -23 71 -24 71 34 46
c19 25 37 46 40 47 3 0 17 -48 32 -107z m145 37 c-17 -36 -33 -59 -36 -51 -2
7 2 17 9 22 11 7 11 9 1 9 -7 0 -10 5 -7 10 4 6 11 7 17 4 7 -5 9 0 6 14 -4
12 -3 20 1 17 5 -2 14 7 21 20 27 50 18 17 -12 -45z m-4868 0 l29 -37 -40
-159 c-38 -147 -41 -172 -46 -331 -4 -122 -9 -171 -17 -167 -6 3 -2 -2 9 -11
14 -12 16 -19 8 -22 -7 -3 -13 -9 -13 -14 0 -6 4 -7 10 -4 6 3 7 -1 4 -9 -3
-9 -11 -13 -17 -9 -6 4 -7 1 -3 -6 5 -7 15 -10 25 -6 12 5 13 4 4 -6 -9 -8 -9
-18 -2 -31 6 -10 7 -27 4 -38 -4 -13 0 -20 16 -25 17 -6 19 -9 8 -16 -11 -7
-10 -9 3 -9 11 0 20 -11 24 -27 4 -16 13 -41 21 -58 l14 -30 -21 25 c-31 38
-86 138 -109 200 -73 198 -74 461 -2 700 16 52 20 58 19 30 -1 -19 -6 -41 -11
-48 -7 -9 -5 -18 6 -30 21 -20 42 -5 26 18 -9 13 -10 12 -5 -2 6 -21 -9 -24
-17 -4 -7 18 17 28 32 13 8 -8 14 -7 24 2 10 11 10 13 0 7 -7 -4 -13 -3 -13 2
0 5 9 12 20 15 14 4 20 14 20 35 0 26 -19 56 -31 49 -2 -1 -3 0 -2 2 5 9 -19
41 -28 36 -5 -4 -9 1 -9 11 0 21 18 7 60 -46z m1360 32 c0 -5 17 -26 37 -47
22 -22 28 -33 15 -26 -11 6 -30 25 -42 41 -12 17 -26 27 -32 24 -7 -4 -8 -2
-4 4 8 14 26 16 26 4z m1937 -29 c11 -10 25 -27 31 -38 10 -17 11 -17 12 -3 0
25 18 31 51 18 30 -13 33 -18 23 -44 -7 -19 -45 -21 -63 -3 -10 10 -10 7 -3
-13 21 -57 -39 -108 -136 -117 -72 -7 -127 8 -175 48 -33 28 -73 80 -49 65 5
-3 30 13 56 35 l46 41 29 -21 c46 -33 105 -22 136 26 18 28 17 27 42 6z
m-1603 -32 c27 -30 17 -63 -22 -73 -41 -11 -62 3 -62 41 0 50 50 69 84 32z
m-206 -41 c5 -13 3 -13 -11 -2 -9 8 -21 11 -27 7 -5 -3 -10 -1 -10 5 0 17 43
8 48 -10z m68 2 c6 -4 15 -22 19 -39 4 -20 13 -33 22 -33 28 0 6 -25 -38 -42
-56 -21 -151 -23 -193 -3 -37 18 -106 85 -88 85 7 0 12 -4 12 -8 0 -4 14 -16
30 -25 17 -10 30 -14 30 -8 0 5 -6 11 -12 14 -7 2 -10 8 -5 12 4 5 13 3 19 -3
7 -7 16 -12 22 -12 5 0 -2 9 -15 21 l-24 21 38 -7 c22 -4 37 -3 37 3 0 5 11
10 25 10 14 0 25 -4 25 -9 0 -4 9 -7 19 -6 11 0 17 5 15 9 -3 4 4 8 15 8 12 0
21 5 21 10 0 12 10 13 26 2z m3121 -124 c-3 -8 -6 -5 -6 6 -1 11 2 17 5 13 3
-3 4 -12 1 -19z m68 -98 c-3 -5 -12 -10 -18 -10 -7 0 -6 4 3 10 19 12 23 12
15 0z m-4201 -306 c3 -8 2 -12 -4 -9 -6 3 -10 10 -10 16 0 14 7 11 14 -7z
m4337 -314 l24 -21 -33 16 c-18 9 -38 13 -44 9 -7 -4 -8 -3 -4 4 11 18 31 14
57 -8z m-957 -46 c3 -8 2 -13 -3 -9 -5 3 -15 -8 -23 -25 -7 -16 -16 -30 -21
-30 -4 0 2 18 13 40 23 45 25 47 34 24z m-3755 -99 c33 -55 36 -63 14 -39 -56
63 -68 81 -71 105 -5 31 5 21 57 -66z m1221 10 c0 -8 -7 -33 -16 -55 -14 -35
-15 -45 -3 -68 23 -48 14 -112 -16 -112 -13 0 -13 -3 -3 -21 12 -19 9 -25 -31
-60 -50 -45 -59 -47 -70 -17 -12 33 -3 54 37 89 33 30 35 33 24 63 -7 18 -12
44 -12 58 0 29 25 105 41 125 15 18 49 17 49 -2z m1909 -9 c37 -39 51 -93 37
-141 -16 -50 -14 -55 35 -103 31 -31 39 -47 39 -75 0 -20 -5 -39 -11 -42 -14
-9 -47 22 -70 66 -21 41 -39 52 -77 43 -19 -4 -23 -3 -13 4 7 5 11 16 9 23 -3
8 3 31 13 51 23 45 24 79 4 144 -18 59 -18 54 -2 54 8 0 24 -11 36 -24z m-959
-161 c102 0 197 4 213 8 26 7 27 6 27 -33 0 -41 25 -79 61 -92 11 -5 8 -10
-11 -24 -78 -57 -230 -204 -288 -278 l-23 -30 -16 25 c-31 45 -158 171 -233
231 -81 65 -91 78 -64 78 34 0 64 40 64 87 l0 43 43 -7 c23 -5 125 -8 227 -8z
m1489 -253 c-57 -63 -118 -102 -158 -102 -18 0 -41 -5 -51 -10 -15 -8 -21 -6
-29 8 -9 17 1 25 97 70 99 47 171 79 181 81 2 1 -16 -21 -40 -47z m-2875 -80
c3 -5 -1 -9 -9 -9 -8 0 -12 4 -9 9 3 4 7 8 9 8 2 0 6 -4 9 -8z m326 -22 c0
-11 -110 -130 -119 -130 -3 0 -14 7 -24 15 -25 18 -16 42 37 99 41 44 44 46
74 35 18 -6 32 -15 32 -19z m2194 -29 l48 -49 -18 -26 c-19 -30 -12 -35 -88
52 -26 29 -44 57 -41 63 14 22 53 7 99 -40z m-1444 -81 c7 -12 6 -51 0 -112
-17 -160 -24 -419 -12 -462 22 -77 -4 -115 -59 -85 -18 9 -19 17 -14 92 3 45
12 188 20 317 9 129 17 245 20 257 6 26 30 22 45 -7z m618 18 c16 -20 22 -76
37 -348 8 -140 18 -267 21 -282 4 -19 0 -32 -15 -47 -42 -42 -87 18 -63 82 11
30 3 270 -17 487 -10 102 6 146 37 108z m-1518 -90 c0 -6 -78 -187 -214 -493
-37 -82 -70 -159 -75 -171 -5 -11 -28 -42 -51 -69 -71 -82 -216 -278 -249
-336 -37 -66 -40 -112 -12 -217 17 -66 17 -71 1 -62 -21 11 -73 111 -90 173
-10 38 -10 56 -1 88 14 47 103 180 219 329 86 110 141 207 212 375 48 114 159
339 197 398 l25 40 19 -24 c10 -13 19 -27 19 -31z m2468 -17 c43 -72 70 -127
184 -381 92 -207 121 -256 224 -385 201 -253 230 -325 183 -450 -18 -48 -76
-132 -84 -123 -2 2 5 35 15 73 35 130 31 141 -92 308 -79 106 -93 121 -82 92
4 -8 1 -15 -6 -15 -8 0 -10 8 -6 23 4 17 -10 43 -58 107 -62 83 -121 202 -266
535 -29 66 -64 141 -78 168 -25 46 -25 49 -9 82 9 19 21 35 26 35 5 0 27 -31
49 -69z m-1588 -682 c0 -19 -21 -49 -34 -49 -17 0 -26 22 -26 61 l0 30 30 -16
c17 -9 30 -20 30 -26z m683 9 c7 -25 -18 -72 -33 -63 -6 4 -10 24 -10 46 0 32
4 39 19 39 11 0 21 -9 24 -22z m1317 -280 c15 -25 -4 -30 -27 -8 -12 10 -23
17 -25 14 -3 -2 -13 6 -24 18 -10 13 -12 17 -4 11 8 -7 20 -13 28 -13 10 0 10
3 -2 16 -9 8 -13 20 -10 26 6 10 42 -26 64 -64z m-2173 -102 c3 -3 -9 -44 -27
-90 -35 -92 -106 -217 -170 -303 -43 -56 -185 -183 -205 -183 -14 0 -27 63
-19 85 3 8 25 30 49 50 66 53 162 187 220 306 28 58 54 116 58 128 5 21 10 23
47 18 23 -3 44 -8 47 -11z m1095 -75 c56 -142 123 -246 218 -341 77 -77 84
-87 81 -120 -2 -19 -5 -37 -7 -39 -8 -8 -135 83 -174 125 -75 82 -174 252
-226 391 l-23 62 32 4 c18 2 39 5 48 5 11 2 26 -25 51 -87z m-2295 -365 c132
-67 247 -110 322 -122 40 -6 42 -8 36 -33 -12 -50 -33 -71 -70 -71 -119 0
-232 30 -366 96 -83 41 -93 54 -85 103 7 43 23 91 30 91 3 0 63 -29 133 -64z
m3522 33 c18 -53 14 -103 -11 -126 -58 -53 -207 -107 -348 -128 -120 -17 -129
-14 -133 50 l-2 38 90 27 c50 15 153 59 230 97 77 38 145 70 152 71 6 1 16
-12 22 -29z m-3414 -324 c33 -7 81 -16 108 -20 l47 -6 0 -42 c0 -48 -22 -87
-50 -87 -11 0 -30 19 -50 51 -17 29 -35 48 -40 43 -4 -5 -15 -44 -25 -87 -20
-94 -42 -122 -89 -113 -44 9 -77 36 -106 87 -20 36 -25 62 -28 136 -3 51 -2
99 1 107 5 12 21 8 89 -20 46 -20 110 -41 143 -49z m3395 -12 c0 -92 -28 -170
-76 -212 -40 -36 -92 -42 -116 -13 -18 19 -48 113 -48 148 0 38 -18 37 -39 -3
-27 -55 -57 -79 -75 -64 -14 12 -44 117 -35 125 2 2 49 12 104 23 55 11 139
36 185 54 55 22 88 31 92 24 4 -5 8 -42 8 -82z m-2850 -122 c201 -56 480 -104
675 -117 61 -3 118 -8 128 -10 10 -2 67 -4 128 -5 60 -1 109 -6 109 -11 0 -4
-5 -8 -11 -8 -5 0 -7 -4 -4 -10 5 -8 -4 -13 -25 -12 -3 0 -11 -6 -18 -14 -11
-12 -9 -14 13 -14 14 0 25 6 25 13 0 9 3 8 9 -2 7 -10 29 -12 107 -6 55 4 100
8 101 9 1 1 -12 9 -28 18 -18 11 -27 13 -24 5 4 -6 -1 -3 -11 8 -14 17 -16 17
-11 3 4 -10 3 -18 -1 -19 -48 -5 -65 -3 -71 11 -8 20 -31 24 -31 5 0 -8 -4
-15 -10 -15 -12 0 -12 3 -4 24 5 13 23 16 93 16 291 0 677 55 929 131 53 16
100 29 105 29 9 0 9 -66 0 -138 -5 -45 -10 -55 -34 -67 -37 -20 -37 -20 -41
16 l-3 31 -20 -23 c-11 -13 -13 -18 -5 -12 12 9 15 7 15 -13 0 -20 -7 -27 -40
-35 -303 -83 -628 -123 -1015 -123 -331 -1 -622 29 -865 90 -150 37 -165 43
-165 64 0 10 -5 22 -11 26 -8 4 -9 0 -4 -15 8 -25 -3 -26 -49 -7 -37 16 -46
41 -46 136 0 58 6 74 25 66 6 -2 44 -13 85 -25z m88 -327 c2 -1 17 -69 33
-151 16 -81 47 -241 69 -355 22 -114 40 -209 40 -212 0 -9 -53 4 -65 16 -5 4
-19 59 -31 121 -11 61 -37 191 -57 287 -19 96 -38 206 -42 243 l-7 68 29 -7
c15 -4 30 -8 31 -10z m1941 -111 c-10 -65 -36 -201 -58 -303 -22 -102 -43
-204 -47 -227 -3 -24 -12 -49 -18 -57 -11 -14 -66 -31 -66 -20 0 3 15 83 34
177 19 95 49 254 67 354 34 189 34 189 85 192 l21 1 -18 -117z m-1829 -686
c22 -11 27 -24 41 -117 9 -58 15 -108 12 -112 -2 -5 -14 -8 -26 -8 -20 0 -24
10 -48 125 -15 77 -21 125 -14 125 5 0 21 -6 35 -13z m1694 -54 c-7 -32 -18
-84 -24 -115 -10 -52 -14 -58 -37 -58 -22 0 -24 3 -19 28 3 15 10 56 16 92 18
111 18 110 49 110 l28 0 -13 -57z m-1514 -265 c48 -16 77 -34 113 -70 33 -33
46 -53 40 -59 -16 -16 -270 -33 -332 -23 -74 12 -84 31 -50 91 45 83 113 101
229 61z m1480 0 c57 -39 92 -105 71 -137 -22 -34 -391 -20 -391 16 0 8 19 34
43 59 73 78 209 108 277 62z m18605 -806 c65 -179 208 -320 388 -381 28 -10
52 -24 52 -31 0 -7 -28 -22 -61 -34 -180 -66 -315 -198 -377 -371 -13 -38 -30
-70 -37 -70 -7 0 -24 34 -39 76 -60 170 -193 299 -376 365 -33 12 -60 27 -60
34 0 7 23 21 50 30 90 31 158 72 224 134 93 88 135 157 186 304 9 26 28 5 50
-56z"/>
<path d="M6345 11260 c-3 -5 -2 -10 4 -10 5 0 13 5 16 10 3 6 2 10 -4 10 -5 0
-13 -4 -16 -10z"/>
<path d="M7882 11720 c-62 -25 -44 -110 23 -110 37 0 65 28 65 66 0 37 -47 60
-88 44z"/>
<path d="M6082 11722 c-34 -5 -58 -47 -44 -78 26 -55 104 -54 118 1 13 52 -19
86 -74 77z"/>
<path d="M7577 10407 c4 -6 1 -8 -8 -5 -8 3 -23 1 -34 -4 -18 -8 -18 -8 3 -4
12 2 29 -2 36 -10 19 -18 27 -18 20 1 -4 8 -1 15 5 15 6 0 11 -8 11 -17 0 -13
9 -19 33 -20 19 -2 27 1 19 6 -7 4 -10 16 -7 27 6 18 6 18 -5 1 -6 -9 -16 -15
-21 -12 -5 4 -7 11 -4 16 4 5 0 9 -7 10 -7 0 -21 2 -31 4 -10 2 -14 -1 -10 -8z"/>
<path d="M7670 10391 c0 -5 7 -11 14 -14 10 -4 13 -1 9 9 -6 15 -23 19 -23 5z"/>
<path d="M8255 10110 c-3 -6 1 -7 9 -4 18 7 21 14 7 14 -6 0 -13 -4 -16 -10z"/>
<path d="M8320 10052 c0 -4 10 -13 23 -21 22 -14 22 -14 3 8 -20 22 -26 25
-26 13z"/>
<path d="M4610 9826 c0 -8 4 -17 9 -20 5 -4 7 3 4 14 -6 23 -13 26 -13 6z"/>
<path d="M4570 9700 c0 -5 5 -10 11 -10 5 0 7 5 4 10 -3 6 -8 10 -11 10 -2 0
-4 -4 -4 -10z"/>
<path d="M9408 9703 c7 -3 16 -2 19 1 4 3 -2 6 -13 5 -11 0 -14 -3 -6 -6z"/>
<path d="M9656 8372 c-3 -5 1 -9 9 -9 8 0 15 4 15 9 0 4 -4 8 -9 8 -6 0 -12
-4 -15 -8z"/>
<path d="M8135 9160 c-3 -6 1 -7 9 -4 18 7 21 14 7 14 -6 0 -13 -4 -16 -10z"/>
<path d="M6140 8046 c0 -2 37 -18 81 -35 45 -17 123 -56 175 -86 51 -30 99
-55 106 -55 18 0 -71 88 -117 115 -61 36 -245 82 -245 61z"/>
<path d="M7715 8021 c-105 -38 -176 -84 -200 -131 -23 -44 -18 -47 18 -13 45
44 176 112 266 139 l76 23 -55 0 c-30 0 -77 -8 -105 -18z"/>
<path d="M5770 7328 c0 -19 14 -29 70 -55 39 -17 70 -30 70 -29 0 4 -129 106
-135 106 -3 0 -5 -10 -5 -22z"/>
<path d="M6904 6810 c-49 -24 -89 -64 -79 -79 10 -16 28 -13 87 14 67 31 104
31 184 -1 81 -32 111 -20 62 26 -66 62 -175 79 -254 40z"/>
<path d="M5276 6682 c7 -4 13 -15 15 -26 2 -10 14 -25 27 -34 20 -13 22 -13
16 2 -3 9 -10 16 -15 16 -5 0 -9 5 -9 11 0 5 6 7 13 4 6 -4 1 3 -12 14 -13 12
-28 21 -35 21 -8 0 -8 -2 0 -8z"/>
<path d="M5335 6570 c3 -5 8 -10 11 -10 2 0 4 5 4 10 0 6 -5 10 -11 10 -5 0
-7 -4 -4 -10z"/>
<path d="M8933 7592 c1 -12 6 -18 15 -15 7 3 10 9 5 12 -4 3 -11 10 -15 15 -4
4 -6 -1 -5 -12z"/>
<path d="M8950 7559 c0 -5 -4 -8 -8 -5 -5 3 -14 -11 -20 -30 -9 -32 -9 -35 6
-29 13 5 14 3 5 -6 -6 -6 -9 -18 -6 -25 3 -8 1 -14 -5 -14 -10 0 -22 -56 -14
-65 11 -11 32 36 37 81 3 27 8 61 11 77 2 15 2 27 -1 27 -3 0 -5 -5 -5 -11z"/>
<path d="M4900 7536 c0 -2 8 -10 18 -17 15 -13 16 -12 3 4 -13 16 -21 21 -21
13z"/>
<path d="M9089 7523 c-13 -16 -12 -17 4 -4 9 7 17 15 17 17 0 8 -8 3 -21 -13z"/>
<path d="M9416 7097 c3 -10 9 -15 12 -12 3 3 0 11 -7 18 -10 9 -11 8 -5 -6z"/>
<path d="M4615 7300 c6 -10 4 -12 -11 -6 -10 4 -15 4 -11 0 4 -4 2 -13 -4 -21
-17 -20 -1 -16 22 6 15 14 17 21 8 26 -8 6 -10 4 -4 -5z"/>
<path d="M4616 6647 c3 -10 9 -15 12 -12 3 3 0 11 -7 18 -10 9 -11 8 -5 -6z"/>
<path d="M5463 4100 c3 -11 0 -20 -6 -20 -14 -1 22 -23 41 -26 6 -1 12 2 12 8
0 6 -7 8 -14 5 -10 -4 -13 -1 -10 8 5 12 10 12 30 -2 16 -10 24 -11 24 -4 0 7
5 9 10 6 6 -3 10 -2 10 4 0 13 -67 34 -81 25 -8 -4 -9 -3 -5 4 4 7 2 12 -5 12
-6 0 -9 -8 -6 -20z"/>
<path d="M5578 4073 c7 -3 16 -2 19 1 4 3 -2 6 -13 5 -11 0 -14 -3 -6 -6z"/>
<path d="M8540 4111 c0 -6 5 -13 10 -16 6 -3 10 1 10 9 0 9 -4 16 -10 16 -5 0
-10 -4 -10 -9z"/>
<path d="M7970 3747 c-58 -17 -106 -31 -108 -32 -1 -1 0 -10 4 -19 4 -10 13
-15 22 -11 8 3 19 0 23 -7 5 -7 17 -14 29 -14 37 -3 41 -4 35 -13 -3 -5 -1
-12 4 -15 5 -4 13 -2 16 4 5 8 11 7 21 -1 10 -8 14 -8 14 0 0 10 -13 15 -32
12 -21 -3 -5 17 17 21 16 4 25 0 28 -11 3 -9 5 -4 6 12 0 15 5 27 10 27 5 0 7
-9 4 -20 -3 -11 -1 -20 4 -20 5 0 11 27 12 60 1 33 1 59 -1 59 -2 -1 -50 -15
-108 -32z m80 -1 c0 -3 -4 -8 -10 -11 -5 -3 -10 -1 -10 4 0 6 5 11 10 11 6 0
10 -2 10 -4z m-84 -50 c1 -8 -4 -17 -12 -20 -8 -3 -13 0 -11 6 1 6 -9 15 -23
19 -21 6 -11 14 13 10 4 0 7 4 7 11 0 17 23 -7 26 -26z m34 28 c0 -8 -19 -13
-24 -6 -3 5 1 9 9 9 8 0 15 -2 15 -3z m54 -12 c-13 -13 -22 -15 -30 -8 -9 8
-6 13 10 18 36 11 40 9 20 -10z m-40 -20 c3 -5 -1 -9 -9 -9 -8 0 -15 4 -15 9
0 4 4 8 9 8 6 0 12 -4 15 -8z"/>
<path d="M6100 3720 c13 -9 13 -11 0 -20 -8 -5 -12 -10 -8 -10 4 0 3 -11 -2
-24 -7 -20 -6 -24 8 -21 9 1 25 -2 35 -7 13 -7 17 -5 17 8 0 10 3 14 6 11 4
-3 15 -2 25 4 11 5 19 6 19 2 0 -5 11 -10 25 -11 14 -1 25 3 25 9 0 5 -4 7
-10 4 -6 -3 -7 1 -4 10 5 12 10 13 20 5 7 -7 10 -18 7 -26 -4 -10 3 -14 22
-14 14 0 24 4 20 10 -3 5 -12 7 -20 3 -11 -4 -13 -1 -9 11 3 9 10 16 15 16 5
0 9 4 9 9 0 5 -8 8 -17 7 -10 -2 -40 3 -68 10 -81 20 -132 26 -115 14z m27
-22 c0 -7 3 -20 5 -28 3 -8 3 -12 1 -7 -3 4 -8 5 -12 2 -7 -3 -8 31 -2 43 3 6
8 1 8 -10z"/>
<path d="M7777 3683 c4 -9 10 -10 24 -2 24 13 24 14 -5 14 -14 0 -22 -5 -19
-12z"/>
<path d="M7704 3670 c-5 -5 -19 -11 -31 -13 -13 -2 -26 -7 -30 -12 -5 -4 3 -5
17 -2 14 4 36 7 50 7 18 0 21 3 11 9 -11 7 -11 9 0 14 8 3 9 6 4 6 -6 1 -15
-3 -21 -9z"/>
<path d="M7884 3669 c-4 -7 -3 -9 4 -5 6 3 13 -2 15 -11 4 -16 5 -16 6 -1 1
21 -15 32 -25 17z"/>
<path d="M7748 3663 c7 -3 16 -2 19 1 4 3 -2 6 -13 5 -11 0 -14 -3 -6 -6z"/>
<path d="M6326 3641 c-3 -4 6 -8 19 -9 13 -1 26 2 29 6 2 4 -7 8 -20 8 -13 1
-26 -1 -28 -5z"/>
<path d="M7837 3603 c18 -56 38 -83 27 -38 -11 46 -22 72 -33 79 -5 4 -3 -15
6 -41z"/>
<path d="M6932 3635 c2 -1 13 -8 26 -14 17 -9 22 -9 22 1 0 7 -12 14 -26 14
-14 1 -24 1 -22 -1z"/>
<path d="M6896 3593 c-6 -15 27 -13 42 3 8 9 5 11 -14 10 -13 0 -26 -6 -28
-13z"/>
<path d="M7971 3588 c-13 -20 -12 -22 1 -11 8 7 18 10 22 6 4 -4 4 0 0 10 -8
21 -6 21 -23 -5z"/>
</g>
</svg>
