<?xml version="1.0" standalone="no"?>
<!DOCTYPE svg PUBLIC "-//W3C//DTD SVG 20010904//EN"
 "http://www.w3.org/TR/2001/REC-SVG-20010904/DTD/svg10.dtd">
<svg version="1.0" xmlns="http://www.w3.org/2000/svg"
 width="1024.000000pt" height="1024.000000pt" viewBox="0 0 1024.000000 1024.000000"
 preserveAspectRatio="xMidYMid meet">

<g transform="translate(0.000000,1024.000000) scale(0.100000,-0.100000)"
fill="#000000" stroke="none">
<path d="M4870 8903 c-388 -36 -660 -89 -942 -184 -328 -109 -584 -234 -873
-424 -941 -620 -1554 -1600 -1706 -2728 -26 -197 -36 -578 -20 -783 56 -709
288 -1344 705 -1932 118 -167 222 -289 385 -453 403 -402 866 -703 1368 -887
828 -305 1726 -319 2548 -40 823 279 1523 828 1992 1563 313 490 497 1015 570
1625 21 179 24 630 5 795 -124 1069 -624 1983 -1443 2641 -121 97 -402 284
-547 363 -442 243 -962 397 -1487 441 -110 9 -471 11 -555 3z m675 -218 c250
-30 464 -78 707 -158 889 -295 1649 -958 2079 -1817 192 -382 308 -771 365
-1225 27 -208 25 -644 -4 -855 -82 -604 -275 -1110 -610 -1601 -218 -320 -531
-640 -863 -881 -671 -489 -1526 -731 -2359 -668 -649 49 -1226 250 -1760 611
-498 337 -927 824 -1195 1358 -336 672 -455 1419 -345 2170 112 762 481 1493
1034 2045 602 602 1378 961 2236 1036 148 12 561 4 715 -15z"/>
<path d="M3420 7920 c-73 -78 -171 -323 -211 -528 l-22 -112 -106 -89 c-208
-173 -348 -339 -532 -626 -56 -88 -129 -198 -162 -245 -138 -196 -327 -400
-460 -500 -65 -49 -78 -67 -70 -99 12 -47 186 -102 373 -117 56 -5 80 -11 76
-19 -36 -94 -112 -357 -140 -481 -61 -277 -86 -502 -86 -774 0 -531 136 -964
422 -1343 132 -175 370 -388 586 -523 111 -71 330 -181 454 -229 93 -37 98
-37 122 -21 35 22 33 52 -9 136 -19 38 -35 72 -35 75 0 3 26 -12 58 -33 208
-141 671 -362 728 -348 39 10 42 50 7 99 -33 45 -86 147 -81 152 2 2 28 -12
58 -32 157 -101 431 -213 646 -264 l85 -20 113 30 c216 58 424 142 574 232 46
28 86 49 88 46 5 -5 -32 -76 -75 -144 -33 -51 -33 -53 -16 -79 22 -34 38 -31
219 47 180 77 364 174 489 255 54 35 100 64 103 64 3 0 -13 -34 -35 -76 -48
-88 -51 -117 -16 -140 24 -16 29 -15 102 11 42 16 151 65 243 111 566 281 955
708 1129 1240 77 234 105 428 105 724 0 219 -8 315 -40 508 -9 52 -13 96 -11
99 3 2 41 -3 84 -12 43 -9 123 -19 179 -22 98 -6 101 -5 117 18 10 13 17 31
17 39 0 9 -29 54 -64 101 -184 243 -305 478 -512 994 -214 532 -351 761 -609
1021 -49 50 -129 122 -176 162 l-86 71 -18 98 c-32 181 -104 379 -178 496 -44
69 -75 87 -110 64 -19 -12 -27 -33 -41 -103 -16 -79 -63 -254 -70 -261 -2 -2
-41 14 -87 36 -305 140 -580 203 -899 204 -182 1 -320 -15 -456 -52 -59 -17
-71 -17 -117 -5 -142 38 -303 57 -472 57 -315 0 -571 -56 -876 -193 -97 -43
-110 -47 -118 -32 -14 27 -71 262 -71 293 0 34 -31 69 -61 69 -12 0 -34 -13
-49 -30z m2400 -2700 c126 -143 292 -271 465 -359 88 -45 128 -51 147 -22 11
19 14 18 57 -19 86 -71 207 -146 336 -205 l128 -60 -6 -175 c-9 -261 -40 -446
-109 -660 -96 -294 -205 -459 -402 -607 -257 -192 -615 -353 -936 -421 -388
-83 -790 -38 -1205 135 -266 111 -554 300 -668 438 -183 222 -304 574 -341
990 l-7 70 83 19 c46 10 117 28 158 41 67 21 81 22 132 11 l57 -11 -33 -50
c-90 -137 -100 -327 -24 -482 35 -71 120 -158 188 -193 147 -75 332 -64 461
29 68 49 112 103 151 188 50 107 51 259 2 388 -5 12 1 15 28 15 19 0 39 5 46
12 20 20 14 56 -12 73 -55 36 -246 89 -457 127 -71 12 -129 25 -129 28 0 3 42
26 93 52 l92 46 55 -18 c30 -9 95 -34 144 -54 105 -44 131 -44 131 -1 0 25 -8
35 -55 63 -30 18 -76 40 -102 50 -27 9 -48 19 -47 22 0 3 64 47 143 98 130 85
221 154 355 270 l49 42 -14 -62 c-33 -144 -86 -324 -124 -421 -22 -57 -40
-112 -40 -122 0 -25 29 -55 52 -55 41 0 262 126 381 217 102 78 264 241 341
344 78 103 178 288 221 411 l27 77 58 -89 c32 -48 91 -125 130 -170z"/>
<path d="M6040 4689 c-91 -24 -211 -79 -245 -113 -21 -21 -24 -29 -15 -46 14
-26 36 -25 106 6 33 14 124 48 203 75 79 26 149 53 154 58 7 7 6 15 -3 26 -17
21 -106 19 -200 -6z"/>
<path d="M6455 4539 c-329 -43 -702 -135 -753 -186 -22 -22 -23 -26 -9 -46 8
-12 30 -26 50 -30 l36 -9 -16 -41 c-21 -60 -28 -203 -13 -268 37 -158 147
-279 300 -329 53 -18 82 -21 156 -18 81 3 100 8 167 41 88 43 171 126 210 209
71 149 57 341 -33 474 -17 26 -30 47 -28 48 2 1 41 9 87 19 105 20 173 53 185
90 16 45 -1 52 -142 54 -70 0 -158 -3 -197 -8z"/>
<path d="M5092 3707 c-41 -49 -30 -97 22 -97 42 0 60 21 51 57 -12 51 -48 70
-73 40z"/>
<path d="M4904 3206 c-3 -8 -4 -23 -2 -33 3 -17 19 -18 212 -18 184 0 210 2
219 17 8 12 7 21 -2 32 -19 23 -419 24 -427 2z"/>
</g>
</svg>
